<svg width="55" height="32" viewBox="0 0 55 32" fill="none" xmlns="http://www.w3.org/2000/svg">
<path d="M55 11.6536C55 7.46114 51.5945 4.05033 47.4086 4.05033C46.7386 4.05033 46.0843 4.13718 45.4458 4.31088C43.7036 1.65803 40.7238 0 37.4287 0C34.0311 0 30.9646 1.83173 29.254 4.60301C27.1492 3.44239 24.7449 2.78707 22.2066 2.78707C15.7503 2.78707 10.0666 7.15322 8.24566 13.2169C3.60255 13.7932 0 17.7725 0 22.5729C0 27.7681 4.22531 32 9.41236 32C11.4698 32 13.4406 31.3289 15.0566 30.113C17.2323 31.3526 19.6682 32 22.2066 32C25.5174 32 28.6943 30.871 31.2563 28.8418C33.3137 30.8552 36.0649 32 39.0368 32C45.1935 32 50.2071 26.9785 50.2071 20.8122C50.2071 20.1174 50.1362 19.4463 50.0179 18.7831C52.911 17.7251 55 14.9302 55 11.6536ZM39.029 29.6314C35.8206 29.6314 33.0221 27.9102 31.4849 25.3442C29.2461 27.9655 25.9195 29.6314 22.2066 29.6314C19.4238 29.6314 16.8618 28.6839 14.8044 27.1128C13.5115 28.6524 11.5802 29.6314 9.41236 29.6314C5.51813 29.6314 2.36491 26.4732 2.36491 22.5729C2.36491 18.6726 5.51813 15.5144 9.41236 15.5144C9.65673 15.5144 9.90112 15.5302 10.1376 15.5539C11.0284 9.67185 16.0814 5.15569 22.2066 5.15569C27.6616 5.15569 32.2811 8.74019 33.8498 13.6827C35.3082 12.6168 37.0897 11.9852 39.029 11.9852C43.8928 11.9852 47.8343 15.9329 47.8343 20.8043C47.8343 25.6837 43.8928 29.6314 39.029 29.6314ZM49.34 16.5171C47.653 12.4747 43.6642 9.62448 39.029 9.62448C37.6337 9.62448 36.2778 9.88503 35.0007 10.3824C34.0469 8.62176 32.7541 7.11374 31.2169 5.90575C32.4782 3.78978 34.78 2.37651 37.4208 2.37651C40.6608 2.37651 43.3962 4.50037 44.3264 7.43746C45.1856 6.80582 46.2498 6.42684 47.4008 6.42684C50.286 6.42684 52.6272 8.77177 52.6272 11.6615C52.6351 13.8643 51.2713 15.7434 49.34 16.5171Z" fill="white"/>
</svg>
