<svg width="56" height="32" viewBox="0 0 56 32" fill="none" xmlns="http://www.w3.org/2000/svg">
<path d="M24.7687 2.59459C30.8532 2.59459 36.0056 6.52108 37.7554 11.9351C39.382 10.7676 41.3691 10.0757 43.5321 10.0757C48.9571 10.0757 53.3534 14.4 53.3534 19.7362C53.3534 25.0724 48.9571 29.3968 43.5321 29.3968C39.9535 29.3968 36.8322 27.5113 35.1176 24.7005C32.6205 27.5719 28.91 29.3968 24.7687 29.3968C21.6649 29.3968 18.8073 28.3589 16.5125 26.6378C15.0705 28.3243 12.9163 29.3968 10.4984 29.3968C6.15482 29.3968 2.63778 25.9373 2.63778 21.6649C2.63778 17.3924 6.15482 13.933 10.4984 13.933C10.7709 13.933 11.0435 13.9503 11.3073 13.9762C12.3008 7.53297 17.9369 2.59459 24.7687 2.59459ZM24.7687 0C17.5676 0 11.2281 4.7827 9.19705 11.4249C4.01821 12.0562 0 16.4151 0 21.6735C0 27.3643 4.71283 32 10.4984 32C12.7932 32 14.9914 31.2649 16.7938 29.933C19.2206 31.2908 21.9375 32 24.7687 32C28.4616 32 32.005 30.7632 34.8626 28.5405C37.1575 30.7459 40.2261 32 43.5409 32C50.4079 32 56 26.4995 56 19.7449C56 12.9903 50.4079 7.48973 43.5409 7.48973C41.9846 7.48973 40.4723 7.77513 39.0479 8.32C36.2343 3.23459 30.818 0 24.7687 0Z" fill="black"/>
</svg>
