<svg width="55" height="36" viewBox="0 0 55 36" fill="none" xmlns="http://www.w3.org/2000/svg">
<path d="M48.0311 13.3052C48.5319 12.2105 48.8169 11.0063 48.8169 9.7263C48.8169 4.86735 44.7841 0.934723 39.8014 0.934723C36.0104 0.934723 32.772 3.21683 31.4335 6.45893C29.2746 5.41472 26.8566 4.84209 24.3264 4.84209C17.2539 4.84209 11.0276 9.49893 9.03281 15.9663C3.94645 16.581 0 20.8252 0 25.9452C0 31.4863 4.62867 36 10.3109 36C12.5648 36 14.7237 35.2842 16.4939 33.9873C18.8774 35.3095 21.5458 36 24.3264 36C27.9534 36 31.4335 34.7958 34.2401 32.6316C36.4939 34.7789 39.5078 36 42.7634 36C49.5078 36 55 30.6442 55 24.0674C55 19.3179 52.1503 15.2252 48.0311 13.3052ZM39.8014 3.46104C43.342 3.46104 46.2262 6.27367 46.2262 9.7263C46.2262 10.7031 45.9845 11.6295 45.5786 12.4547C44.6718 12.2442 43.7306 12.1263 42.7634 12.1263C41.2349 12.1263 39.7496 12.4042 38.3506 12.9347C37.2021 10.8716 35.5958 9.12841 33.696 7.78946C34.5423 5.27998 36.9603 3.46104 39.8014 3.46104ZM42.7634 33.4652C39.2487 33.4652 36.1831 31.6295 34.4991 28.8926C32.0466 31.6884 28.4024 33.4652 24.3351 33.4652C21.2867 33.4652 18.4801 32.4547 16.2262 30.7789C14.81 32.421 12.6943 33.4652 10.3195 33.4652C6.05354 33.4652 2.5993 30.0968 2.5993 25.9368C2.5993 21.7768 6.05354 18.4084 10.3195 18.4084C10.5872 18.4084 10.8549 18.4252 11.114 18.4505C12.0898 12.1768 17.6252 7.35999 24.3351 7.35999C30.3109 7.35999 35.3713 11.1831 37.0898 16.4547C38.6874 15.3179 40.639 14.6442 42.7634 14.6442C48.0915 14.6442 52.4093 18.8547 52.4093 24.0505C52.4093 29.2547 48.0915 33.4652 42.7634 33.4652Z" fill="white"/>
</svg>
