<svg width="56" height="42" viewBox="0 0 56 42" fill="none" xmlns="http://www.w3.org/2000/svg">
<path d="M24.7687 2.72432C30.8532 2.72432 36.0056 6.84714 37.7554 12.5319C39.382 11.3059 41.3691 10.5795 43.5321 10.5795C48.9571 10.5795 53.3534 15.12 53.3534 20.723C53.3534 26.3261 48.9571 30.8666 43.5321 30.8666C39.9535 30.8666 36.8321 28.8869 35.1176 25.9356C32.6205 28.9505 28.91 30.8666 24.7687 30.8666C21.6649 30.8666 18.8074 29.7769 16.5125 27.9697C15.0705 29.7405 12.9163 30.8666 10.4983 30.8666C6.15479 30.8666 2.63778 27.2342 2.63778 22.7481C2.63778 18.2621 6.15479 14.6296 10.4983 14.6296C10.7709 14.6296 11.0435 14.6478 11.3073 14.675C12.3008 7.9187 17.9369 2.72432 24.7687 2.72432ZM24.7687 0C17.5676 0 11.2281 5.02184 9.19704 11.9961C4.01821 12.659 0 17.2359 0 22.7572C0 28.7325 4.71281 33.6 10.4983 33.6C12.7932 33.6 14.9913 32.8281 16.7938 31.4296C19.2206 32.8554 21.9375 33.6 24.7687 33.6C28.4616 33.6 32.005 32.3014 34.8626 29.9676C37.1575 32.2832 40.2261 33.6 43.5409 33.6C50.4079 33.6 56 27.8244 56 20.7321C56 13.6398 50.4079 7.86421 43.5409 7.86421C41.9846 7.86421 40.4723 8.16389 39.0479 8.736C36.2255 3.40541 30.818 0 24.7687 0Z" fill="white"/>
<path d="M17.7522 37.178C17.1895 36.2517 16.4421 35.3981 15.642 34.6807C14.8331 35.389 14.0945 36.2517 13.5318 37.178C12.8548 38.2949 12.5558 39.8932 13.3735 41.0283C13.9011 41.7639 14.7979 42 15.642 42C16.4949 42 17.383 41.7548 17.9105 41.0283C18.7282 39.8932 18.4293 38.2949 17.7522 37.178Z" fill="white"/>
<path d="M28.5671 37.178C28.0044 36.2517 27.257 35.3981 26.4569 34.6807C25.648 35.389 24.9094 36.2517 24.3467 37.178C23.6696 38.2949 23.3707 39.8932 24.1884 41.0283C24.716 41.7639 25.6128 42 26.4569 42C27.3098 42 28.1978 41.7548 28.7254 41.0283C29.5431 39.8932 29.2354 38.2949 28.5671 37.178Z" fill="white"/>
<path d="M39.1182 37.178C38.5555 36.2517 37.8081 35.3981 37.008 34.6807C36.1991 35.389 35.4605 36.2517 34.8978 37.178C34.2207 38.2949 33.9218 39.8932 34.7395 41.0283C35.2671 41.7639 36.1639 42 37.008 42C37.8609 42 38.7489 41.7548 39.2765 41.0283C40.0942 39.8932 39.7865 38.2949 39.1182 37.178Z" fill="white"/>
</svg>
