<svg width="57" height="58" viewBox="0 0 50 50" fill="none" xmlns="http://www.w3.org/2000/svg">
<path d="M25 50C24.5856 50 24.1882 49.8354 23.8952 49.5424C23.6021 49.2493 23.4375 48.8519 23.4375 48.4375V44.3969L21.4188 46.4188C21.1254 46.7117 20.7276 46.8762 20.313 46.8759C19.8983 46.8756 19.5008 46.7106 19.2078 46.4172C18.9148 46.1238 18.7504 45.726 18.7507 45.3114C18.751 44.8968 18.916 44.4992 19.2094 44.2062L23.4375 39.9781V27.7063L12.8125 33.8406L11.2625 39.6219C11.1548 40.0222 10.8924 40.3633 10.5332 40.5702C10.1739 40.7771 9.74719 40.8327 9.34688 40.725C8.94657 40.6173 8.60545 40.3549 8.39858 39.9957C8.1917 39.6364 8.13601 39.2097 8.24375 38.8094L8.98438 36.0531L5.48438 38.0719C5.12569 38.2758 4.70091 38.3296 4.30272 38.2215C3.90452 38.1134 3.56526 37.8522 3.35895 37.4948C3.15264 37.1375 3.09604 36.7131 3.20151 36.3142C3.30697 35.9153 3.56593 35.5743 3.92188 35.3656L7.42188 33.3469L4.65938 32.6063C4.46117 32.5529 4.2754 32.461 4.11269 32.3359C3.94998 32.2107 3.81351 32.0548 3.71108 31.8769C3.60864 31.699 3.54225 31.5027 3.51568 31.2992C3.48912 31.0956 3.5029 30.8888 3.55625 30.6906C3.6096 30.4924 3.70147 30.3066 3.82661 30.1439C3.95176 29.9812 4.10772 29.8448 4.2856 29.7423C4.46348 29.6399 4.6598 29.5735 4.86334 29.5469C5.06688 29.5204 5.27367 29.5342 5.47188 29.5875L11.2469 31.1344L21.875 25L11.25 18.8656L5.46875 20.4125C5.07105 20.5116 4.65032 20.4505 4.29725 20.2423C3.94419 20.0341 3.68706 19.6956 3.5813 19.2996C3.47554 18.9036 3.52961 18.4819 3.73186 18.1254C3.93411 17.7689 4.26834 17.5061 4.6625 17.3937L7.42188 16.6531L3.92188 14.6344C3.74275 14.5325 3.58553 14.3963 3.45927 14.2334C3.33302 14.0705 3.24023 13.8843 3.18624 13.6855C3.13225 13.4866 3.11813 13.279 3.14469 13.0747C3.17125 12.8703 3.23796 12.6733 3.341 12.4948C3.44403 12.3163 3.58135 12.16 3.74504 12.0349C3.90873 11.9097 4.09556 11.8181 4.29478 11.7655C4.49399 11.7128 4.70166 11.7001 4.90582 11.728C5.10999 11.7559 5.30661 11.8239 5.48438 11.9281L8.98438 13.9469L8.24375 11.1875C8.18689 10.9881 8.17031 10.7793 8.19496 10.5734C8.21962 10.3674 8.28502 10.1685 8.38735 9.98811C8.48969 9.80773 8.62691 9.64952 8.79102 9.52272C8.95512 9.39591 9.14283 9.30304 9.3432 9.24953C9.54357 9.19601 9.75259 9.18292 9.95806 9.21102C10.1635 9.23912 10.3614 9.30784 10.54 9.41318C10.7187 9.51852 10.8746 9.65837 10.9986 9.82457C11.1226 9.99078 11.2124 10.18 11.2625 10.3813L12.8094 16.1594L23.4375 22.2937V10.0219L19.2094 5.79375C19.0641 5.64868 18.9488 5.47642 18.8701 5.2868C18.7914 5.09717 18.7508 4.89391 18.7507 4.6886C18.7506 4.4833 18.7908 4.27998 18.8693 4.09025C18.9477 3.90051 19.0627 3.72809 19.2078 3.58281C19.3529 3.43754 19.5252 3.32226 19.7148 3.24356C19.9044 3.16486 20.1077 3.12428 20.313 3.12413C20.5183 3.12399 20.7216 3.16428 20.9113 3.24271C21.1011 3.32115 21.2735 3.43618 21.4188 3.58125L23.4375 5.60312V1.5625C23.4375 1.1481 23.6021 0.750671 23.8952 0.457646C24.1882 0.16462 24.5856 0 25 0C25.4144 0 25.8118 0.16462 26.1049 0.457646C26.3979 0.750671 26.5625 1.1481 26.5625 1.5625V5.60312L28.5844 3.58125C28.8778 3.28827 29.2755 3.12384 29.6902 3.12413C30.1048 3.12442 30.5023 3.28942 30.7953 3.58281C31.0883 3.87621 31.2527 4.27397 31.2524 4.6886C31.2521 5.10324 31.0872 5.50077 30.7938 5.79375L26.5625 10.0219V22.2937L37.1875 16.1594L38.7375 10.3781C38.8453 9.97781 39.1076 9.6367 39.4669 9.42982C39.8261 9.22295 40.2528 9.16726 40.6531 9.275C41.0534 9.38274 41.3946 9.6451 41.6014 10.0043C41.8083 10.3636 41.864 10.7903 41.7563 11.1906L41.0188 13.9469L44.5188 11.9281C44.8774 11.7242 45.3022 11.6704 45.7004 11.7785C46.0986 11.8866 46.4379 12.1478 46.6442 12.5052C46.8505 12.8625 46.9071 13.2869 46.8016 13.6858C46.6962 14.0847 46.4372 14.4257 46.0813 14.6344L42.5813 16.6531L45.3406 17.3937C45.7409 17.5015 46.0821 17.7638 46.2889 18.1231C46.4958 18.4823 46.5515 18.9091 46.4438 19.3094C46.336 19.7097 46.0737 20.0508 45.7144 20.2577C45.3552 20.4646 44.9284 20.5202 44.5281 20.4125L38.7531 18.8656L28.125 25L38.75 31.1344L44.5281 29.5875C44.9284 29.4802 45.355 29.5363 45.714 29.7434C46.0729 29.9506 46.3349 30.2919 46.4422 30.6922C46.5495 31.0925 46.4934 31.5191 46.2863 31.878C46.0791 32.237 45.7378 32.4989 45.3375 32.6063L42.5781 33.3469L46.0781 35.3656C46.4341 35.5743 46.693 35.9153 46.7985 36.3142C46.904 36.7131 46.8474 37.1375 46.6411 37.4948C46.4348 37.8522 46.0955 38.1134 45.6973 38.2215C45.2991 38.3296 44.8743 38.2758 44.5156 38.0719L41.0156 36.0531L41.7531 38.8125C41.81 39.0119 41.8266 39.2207 41.8019 39.4266C41.7773 39.6326 41.7119 39.8315 41.6095 40.0119C41.5072 40.1923 41.37 40.3505 41.2059 40.4773C41.0418 40.6041 40.8541 40.697 40.6537 40.7505C40.4533 40.804 40.2443 40.8171 40.0388 40.789C39.8333 40.7609 39.6355 40.6922 39.4569 40.5868C39.2782 40.4815 39.1223 40.3416 38.9983 40.1754C38.8742 40.0092 38.7845 39.82 38.7344 39.6188L37.1875 33.8406L26.5625 27.7063V39.9781L30.7906 44.2062C31.084 44.4992 31.249 44.8968 31.2493 45.3114C31.2496 45.726 31.0852 46.1238 30.7922 46.4172C30.4992 46.7106 30.1017 46.8756 29.687 46.8759C29.2724 46.8762 28.8747 46.7117 28.5813 46.4188L26.5594 44.3969V48.4375C26.5594 48.8519 26.3948 49.2493 26.1017 49.5424C25.8087 49.8354 25.4113 50 24.9969 50H25Z" fill="white"/>
</svg>
