<svg width="144" height="143" viewBox="0 0 56 56" fill="none" xmlns="http://www.w3.org/2000/svg">
<g clip-path="url(#clip0_73_532)">
<path d="M24.7701 14.8028C30.8545 14.8028 36.007 18.7293 37.7567 24.1434C39.3833 22.9758 41.3705 22.2839 43.5335 22.2839C48.9585 22.2839 53.3548 26.6082 53.3548 31.9445C53.3548 37.2807 48.9585 41.605 43.5335 41.605C39.9549 41.605 36.8335 39.7196 35.1189 36.9088C32.6218 39.7801 28.9114 41.605 24.7701 41.605C21.6663 41.605 18.8087 40.5672 16.5138 38.8461C15.0718 40.5326 12.9177 41.605 10.4997 41.605C6.15616 41.605 2.63912 38.1455 2.63912 33.8731C2.63912 29.6007 6.15616 26.1412 10.4997 26.1412C10.7723 26.1412 11.0448 26.1585 11.3086 26.1845C12.3022 19.7412 17.9382 14.8028 24.7701 14.8028ZM24.7701 12.2083C17.5689 12.2083 11.2295 16.991 9.19839 23.6331C4.01956 24.2645 0.00134277 28.6234 0.00134277 33.8818C0.00134277 39.5726 4.71417 44.2083 10.4997 44.2083C12.7946 44.2083 14.9927 43.4731 16.7952 42.1412C19.2219 43.4991 21.9389 44.2083 24.7701 44.2083C28.463 44.2083 32.0064 42.9715 34.864 40.7488C37.1588 42.9542 40.2274 44.2083 43.5422 44.2083C50.4093 44.2083 56.0013 38.7077 56.0013 31.9531C56.0013 25.1985 50.4093 19.698 43.5422 19.698C41.986 19.698 40.4736 19.9834 39.0492 20.5282C36.2356 15.4428 30.8194 12.2083 24.7701 12.2083Z" fill="white"/>
</g>
<defs>
<clipPath id="clip0_73_532">
<rect width="56" height="56" fill="white"/>
</clipPath>
</defs>
</svg>
