<svg width="144" height="143" viewBox="0 0 56 56" fill="none" xmlns="http://www.w3.org/2000/svg">
<g clip-path="url(#clip0_73_526)">
<g clip-path="url(#clip1_73_526)">
<path d="M49.1272 24.831C49.628 23.7362 49.913 22.532 49.913 21.252C49.913 16.3931 45.8802 12.4604 40.8975 12.4604C37.1065 12.4604 33.8681 14.7426 32.5296 17.9847C30.3707 16.9404 27.9527 16.3678 25.4225 16.3678C18.35 16.3678 12.1237 21.0247 10.1289 27.492C5.04255 28.1068 1.0961 32.351 1.0961 37.471C1.0961 43.012 5.72477 47.5257 11.407 47.5257C13.6609 47.5257 15.8198 46.8099 17.59 45.5131C19.9735 46.8352 22.6419 47.5257 25.4225 47.5257C29.0495 47.5257 32.5296 46.3215 35.3362 44.1573C37.59 46.3047 40.6039 47.5257 43.8595 47.5257C50.6039 47.5257 56.0961 42.1699 56.0961 35.5931C56.0961 30.8436 53.2464 26.751 49.1272 24.831ZM40.8975 14.9868C44.4381 14.9868 47.3223 17.7994 47.3223 21.252C47.3223 22.2289 47.0806 23.1552 46.6747 23.9804C45.7679 23.7699 44.8267 23.652 43.8595 23.652C42.331 23.652 40.8457 23.9299 39.4467 24.4604C38.2982 22.3973 36.6919 20.6541 34.7921 19.3152C35.6384 16.8057 38.0564 14.9868 40.8975 14.9868ZM43.8595 44.991C40.3448 44.991 37.2792 43.1552 35.5952 40.4183C33.1427 43.2141 29.4985 44.991 25.4312 44.991C22.3828 44.991 19.5762 43.9804 17.3223 42.3047C15.9061 43.9468 13.7904 44.991 11.4156 44.991C7.14964 44.991 3.6954 41.6225 3.6954 37.4625C3.6954 33.3026 7.14964 29.9341 11.4156 29.9341C11.6833 29.9341 11.951 29.951 12.2101 29.9762C13.1859 23.7026 18.7213 18.8857 25.4312 18.8857C31.407 18.8857 36.4674 22.7089 38.1859 27.9804C39.7835 26.8436 41.7351 26.1699 43.8595 26.1699C49.1876 26.1699 53.5054 30.3804 53.5054 35.5762C53.5054 40.7804 49.1876 44.991 43.8595 44.991Z" fill="white"/>
<path d="M54.9735 19.9888H51.6574V22.5151H54.9735V19.9888Z" fill="white"/>
<path d="M49.9319 10.6524L47.5871 12.939L49.4189 14.7253L51.7637 12.4388L49.9319 10.6524Z" fill="white"/>
<path d="M42.1928 7.52563H39.6021V10.7593H42.1928V7.52563Z" fill="white"/>
<path d="M31.8669 10.6573L30.0348 12.4434L32.3792 14.7302L34.2113 12.9441L31.8669 10.6573Z" fill="white"/>
</g>
</g>
<defs>
<clipPath id="clip0_73_526">
<rect width="56" height="56" fill="white"/>
</clipPath>
<clipPath id="clip1_73_526">
<rect width="55" height="40" fill="white" transform="translate(1.0961 7.52563)"/>
</clipPath>
</defs>
</svg>
