<svg width="56" height="57" viewBox="0 0 56 57" fill="none" xmlns="http://www.w3.org/2000/svg">
<path d="M27.8913 14.1873C35.7663 14.1873 42.1835 20.6371 42.1835 28.5791C42.1835 36.5091 35.7783 42.971 27.8913 42.971C20.0162 42.971 13.5991 36.5211 13.5991 28.5791C13.5991 20.6371 20.0162 14.1873 27.8913 14.1873ZM27.8913 10.5773C18.0206 10.5773 10.0141 18.6396 10.0141 28.5791C10.0141 38.5187 18.0206 46.581 27.8913 46.581C37.762 46.581 45.7685 38.5187 45.7685 28.5791C45.7685 18.6396 37.762 10.5773 27.8913 10.5773Z" fill="black"/>
<path d="M29.6838 0.481323H26.0988V7.09966H29.6838V0.481323Z" fill="black"/>
<path d="M9.43162 7.4315L6.89667 9.98413L11.5441 14.664L14.079 12.1113L9.43162 7.4315Z" fill="black"/>
<path d="M6.5725 26.7742H0V30.3842H6.5725V26.7742Z" fill="black"/>
<path d="M11.5468 42.483L6.89941 47.1628L9.43437 49.7155L14.0818 45.0357L11.5468 42.483Z" fill="black"/>
<path d="M29.6838 50.0466H26.0988V56.665H29.6838V50.0466Z" fill="black"/>
<path d="M44.2432 42.4802L41.7083 45.0328L46.3557 49.7127L48.8906 47.16L44.2432 42.4802Z" fill="black"/>
<path d="M55.7945 26.7742H49.222V30.3842H55.7945V26.7742Z" fill="black"/>
<path d="M46.3529 7.4287L41.7055 12.1085L44.2404 14.6612L48.8878 9.98133L46.3529 7.4287Z" fill="black"/>
</svg>
