<svg width="132" height="126" viewBox="0 0 132 126" fill="none" xmlns="http://www.w3.org/2000/svg">
<g clip-path="url(#clip0_82_410)">
<path d="M64.4858 25.282L65.1472 27.5105L74.8707 24.5918L74.8872 23.9265C75.0443 18.2471 74.2671 12.5427 72.5638 6.95475C72.1835 5.71576 71.0838 4.96737 70.0503 5.25841C65.7922 6.47246 61.9144 9.11677 58.8386 12.9086C55.8124 16.6422 53.5552 21.4984 52.3067 26.9534L51.9512 28.5L64.1716 24.8246C64.2377 24.8662 64.3948 25.0076 64.4692 25.2736L64.4858 25.282ZM54.4895 25.8142C57.1105 16.1599 63.014 9.20824 70.505 7.05454C70.5712 7.0878 70.72 7.22916 70.8027 7.49526C72.3819 12.6675 73.1343 17.9478 73.0599 23.2031L66.3792 25.2071L66.2386 24.7415C66.0733 24.1926 65.7591 23.7103 65.3457 23.386C64.8496 23.0035 64.2543 22.8705 63.7003 23.0368L54.4895 25.8058V25.8142Z" fill="white"/>
<path d="M93.5581 37.3932C92.045 38.441 90.1268 38.6572 88.4235 37.967L83.3882 35.938C81.8999 35.3393 80.2297 35.2478 78.6918 35.6885L72.0359 37.5761C72.3501 36.7945 72.6395 35.9962 72.9041 35.1813L80.5356 33.0193C81.6932 32.695 82.9417 32.7615 84.0579 33.2105L89.0932 35.2395C89.9697 35.5971 90.8957 35.7717 91.8135 35.7717C93.2687 35.7717 94.7156 35.331 95.9559 34.4745L99.0812 32.3125L98.0394 30.7908L94.9141 32.9528C93.401 34.0005 91.4828 34.2167 89.7712 33.5265L84.7359 31.4976C83.2476 30.8989 81.5774 30.8074 80.0396 31.2481L73.5242 33.0941C74.1443 30.7824 74.566 28.3543 74.7975 25.8597L74.9215 24.496L65.4792 27.3315C65.4131 27.29 65.256 27.1486 65.1816 26.8825L64.5201 24.654L51.8863 28.4541L51.7953 29.0362C51.6134 30.2669 51.4729 31.5225 51.3819 32.7865C51.0264 32.8613 50.6626 32.8946 50.2988 32.8946C49.2157 32.8946 48.1656 32.5786 47.2644 31.9715C45.2717 30.6328 42.7499 30.3667 40.5175 31.2564L34.275 33.7427L34.953 35.464L41.1955 32.9777C42.8657 32.3125 44.7508 32.512 46.2474 33.5182C47.4545 34.3248 48.8519 34.7572 50.3071 34.7572C50.6378 34.7572 50.9685 34.7323 51.291 34.6907C51.2662 35.4141 51.2579 36.1376 51.2744 36.861L50.952 36.9857C50.3153 37.2352 49.6456 37.3599 48.9593 37.3599C47.8762 37.3599 46.8261 37.0356 45.9249 36.4369C43.9323 35.0981 41.4105 34.8321 39.178 35.7218L32.9355 38.2081L33.6135 39.9294L39.856 37.4431C41.5262 36.7779 43.4114 36.9774 44.9079 37.9836C46.1151 38.7902 47.5124 39.2143 48.9676 39.2143C49.7779 39.2143 50.5799 39.0812 51.3406 38.8151C51.3406 38.8318 51.3406 38.8567 51.3406 38.8734C51.3819 39.655 51.7375 40.3951 52.2997 40.8607C52.7296 41.2183 53.2423 41.3763 53.7466 41.3098L58.8399 40.603L61.5022 47.5297C61.7999 48.3031 62.3952 48.8685 63.0815 49.0348C63.222 49.0681 63.3543 49.0847 63.4866 49.0847C63.9 49.0847 64.2886 48.935 64.6111 48.6523C67.1908 46.324 69.3653 43.3554 71.0685 39.813L79.1879 37.5096C80.3455 37.1853 81.594 37.2518 82.7102 37.6926L87.7455 39.7215C88.622 40.0791 89.548 40.2454 90.4658 40.2454C91.921 40.2454 93.3679 39.8047 94.6081 38.9482L97.7335 36.7862L96.6917 35.2645L93.5663 37.4265L93.5581 37.3932ZM69.5803 38.6073C67.968 42.0582 65.9092 44.9436 63.4453 47.1722C63.3791 47.1223 63.2799 47.0225 63.2055 46.8229L60.0139 38.5324L53.5151 39.4388C53.4076 39.3889 53.1844 39.1228 53.1679 38.7403C53.1431 38.2913 53.1265 37.8506 53.1183 37.4265C53.0852 36.1293 53.1017 34.8237 53.1761 33.5432C53.2423 32.3125 53.3663 31.0735 53.5317 29.8677L63.2882 26.9407L63.4287 27.4064C63.8091 28.6786 64.917 29.427 65.9671 29.111L72.8214 27.0488C72.5155 29.5185 72.0028 31.8967 71.3083 34.1502C70.8288 35.7052 70.25 37.202 69.5885 38.5989L69.5803 38.6073Z" fill="white"/>
<path d="M53.4697 30.5398C53.4697 29.0829 54.1982 26.6061 54.781 25.0034L65.7081 21.5067C68.1364 21.5067 72.7668 21.7677 72.9929 22.6723C73.2843 23.8378 72.8472 27.7716 72.4101 29.52C72.4101 29.957 53.4697 32.004 53.4697 30.5398Z" fill="white"/>
</g>
<path d="M9.25539 78.3165H12.1693V65.1223H9.25539V78.3165ZM10.7939 60.157C10.2345 60.157 9.77601 60.3124 9.41857 60.6232C9.06113 60.9185 8.88241 61.3148 8.88241 61.8121C8.88241 62.2939 9.06113 62.6979 9.41857 63.0243C9.79155 63.3507 10.25 63.5138 10.7939 63.5138C11.3379 63.5138 11.7808 63.3507 12.1227 63.0243C12.4801 62.6979 12.6588 62.2939 12.6588 61.8121C12.6588 61.3148 12.4879 60.9185 12.146 60.6232C11.8041 60.3124 11.3534 60.157 10.7939 60.157ZM17.9762 56.1708L22.9881 68.5258L21.0299 68.1295L25.5756 56.1708H29.5852L21.7526 74.1205L13.92 56.1708H17.9762ZM28.2737 73.3279L36.0131 55.4948H36.1996L43.9389 73.3279H40.0226L35.0806 60.7864L37.5283 59.108L31.6072 73.3279H28.2737ZM33.5654 67.1271H38.7172L39.9061 69.9711H32.5164L33.5654 67.1271ZM46.4399 73.3279V55.4715H46.4633L55.9976 68.992L54.5523 68.6656L64.0633 55.4715H64.1099V73.3279H60.7298V63.0942L60.9396 64.8426L55.1351 73.0948H55.0884L49.1207 64.8426L49.7035 63.2341V73.3279H46.4399ZM67.4957 64.7726C67.4957 63.5915 67.721 62.4726 68.1717 61.4158C68.6224 60.359 69.244 59.4266 70.0366 58.6185C70.8447 57.7948 71.7772 57.1499 72.8339 56.6836C73.8907 56.2174 75.0252 55.9843 76.2374 55.9843C77.434 55.9843 78.5607 56.2174 79.6175 56.6836C80.6743 57.1499 81.6067 57.7948 82.4149 58.6185C83.2385 59.4266 83.8757 60.359 84.3264 61.4158C84.7926 62.4726 85.0257 63.5915 85.0257 64.7726C85.0257 65.9848 84.7926 67.1193 84.3264 68.1761C83.8757 69.2329 83.2385 70.1653 82.4149 70.9734C81.6067 71.766 80.6743 72.3877 79.6175 72.8383C78.5607 73.289 77.434 73.5144 76.2374 73.5144C75.0252 73.5144 73.8907 73.289 72.8339 72.8383C71.7772 72.3877 70.8447 71.766 70.0366 70.9734C69.244 70.1653 68.6224 69.2329 68.1717 68.1761C67.721 67.1193 67.4957 65.9848 67.4957 64.7726ZM70.9924 64.7726C70.9924 65.5341 71.1245 66.249 71.3886 66.9173C71.6684 67.57 72.0491 68.1528 72.5309 68.6656C73.0282 69.1629 73.5954 69.5515 74.2326 69.8312C74.8853 70.1109 75.5924 70.2508 76.3539 70.2508C77.0844 70.2508 77.7604 70.1109 78.382 69.8312C79.0192 69.5515 79.5709 69.1629 80.0371 68.6656C80.5033 68.1528 80.8686 67.57 81.1328 66.9173C81.3969 66.249 81.529 65.5341 81.529 64.7726C81.529 63.9956 81.3892 63.273 81.1094 62.6047C80.8452 61.9364 80.4723 61.3537 79.9905 60.8564C79.5243 60.3435 78.9726 59.9472 78.3354 59.6675C77.6982 59.3877 77.0067 59.2479 76.2607 59.2479C75.5147 59.2479 74.8232 59.3877 74.186 59.6675C73.5488 59.9472 72.9894 60.3435 72.5076 60.8564C72.0258 61.3537 71.6528 61.9364 71.3886 62.6047C71.1245 63.273 70.9924 63.9956 70.9924 64.7726ZM97.557 60.3202C96.9043 59.9628 96.236 59.6675 95.5522 59.4344C94.884 59.2013 94.2546 59.0847 93.664 59.0847C92.9336 59.0847 92.3586 59.2323 91.939 59.5276C91.5194 59.8229 91.3096 60.2658 91.3096 60.8564C91.3096 61.2604 91.465 61.6256 91.7758 61.952C92.1022 62.2628 92.514 62.5425 93.0113 62.7912C93.5241 63.0398 94.0525 63.2652 94.5965 63.4672C95.0938 63.6537 95.5833 63.879 96.0651 64.1432C96.5624 64.3919 97.0053 64.7105 97.3938 65.099C97.7823 65.472 98.0931 65.946 98.3263 66.521C98.5594 67.0805 98.6759 67.772 98.6759 68.5957C98.6759 69.466 98.4506 70.2741 97.9999 71.0201C97.5492 71.766 96.8887 72.3721 96.0184 72.8383C95.1482 73.289 94.0758 73.5144 92.8015 73.5144C92.1488 73.5144 91.4805 73.4522 90.7967 73.3279C90.1285 73.188 89.468 72.986 88.8153 72.7218C88.1625 72.4421 87.5331 72.0924 86.9271 71.6728L88.419 69.0386C88.823 69.3339 89.2582 69.5981 89.7244 69.8312C90.2062 70.0488 90.6879 70.2197 91.1697 70.344C91.6515 70.4684 92.0944 70.5305 92.4984 70.5305C92.9025 70.5305 93.3066 70.4761 93.7106 70.3674C94.1302 70.243 94.4721 70.041 94.7363 69.7613C95.0161 69.4815 95.1559 69.093 95.1559 68.5957C95.1559 68.2538 95.0394 67.943 94.8063 67.6632C94.5887 67.3835 94.2856 67.1271 93.8971 66.894C93.5241 66.6609 93.1123 66.4588 92.6616 66.2879C92.1332 66.0858 91.5893 65.8527 91.0298 65.5885C90.4704 65.3243 89.942 65.0058 89.4447 64.6328C88.9629 64.2443 88.5666 63.7703 88.2558 63.2108C87.9605 62.6358 87.8129 61.9364 87.8129 61.1128C87.8129 60.1182 88.0305 59.2556 88.4656 58.5252C88.9163 57.7948 89.5457 57.2198 90.3538 56.8002C91.1619 56.3651 92.0944 56.1242 93.1512 56.0775C94.5343 56.0775 95.6532 56.2407 96.508 56.5671C97.3783 56.8934 98.1553 57.282 98.8391 57.7326L97.557 60.3202ZM107.632 73.3279L115.372 55.4948H115.558L123.297 73.3279H119.381L114.439 60.7864L116.887 59.108L110.966 73.3279H107.632ZM112.924 67.1271H118.076L119.265 69.9711H111.875L112.924 67.1271ZM38.3982 94.9059C38.2117 95.0613 37.862 95.2711 37.3492 95.5353C36.8519 95.7995 36.238 96.0326 35.5076 96.2346C34.7772 96.4367 33.9691 96.5299 33.0832 96.5144C31.7312 96.4833 30.519 96.2424 29.4467 95.7917C28.3899 95.3255 27.4885 94.6961 26.7426 93.9035C26.0122 93.1109 25.4527 92.2018 25.0642 91.1761C24.6756 90.1504 24.4814 89.0548 24.4814 87.8892C24.4814 86.5838 24.6756 85.3871 25.0642 84.2993C25.4682 83.2114 26.0355 82.2712 26.7659 81.4786C27.5118 80.686 28.3977 80.0722 29.4234 79.637C30.4491 79.2019 31.5835 78.9843 32.8268 78.9843C33.9768 78.9843 34.9948 79.1397 35.8806 79.4505C36.7664 79.7613 37.4891 80.0955 38.0485 80.4529L36.7198 83.6466C36.3313 83.3513 35.8107 83.0482 35.1579 82.7374C34.5208 82.4111 33.7826 82.2479 32.9434 82.2479C32.2907 82.2479 31.6612 82.3877 31.0552 82.6675C30.4646 82.9317 29.9362 83.3124 29.47 83.8097C29.0193 84.307 28.6619 84.8898 28.3977 85.5581C28.1335 86.2108 28.0014 86.9257 28.0014 87.7027C28.0014 88.5264 28.1179 89.2801 28.351 89.9639C28.5997 90.6477 28.9494 91.2383 29.4001 91.7356C29.8507 92.2173 30.3869 92.5903 31.0085 92.8545C31.6457 93.1187 32.3606 93.2508 33.1532 93.2508C34.0701 93.2508 34.8549 93.1032 35.5076 92.8079C36.1603 92.5126 36.6576 92.2018 36.9995 91.8754L38.3982 94.9059ZM40.7355 87.7726C40.7355 86.5915 40.9609 85.4726 41.4115 84.4158C41.8622 83.359 42.4839 82.4266 43.2764 81.6185C44.0846 80.7948 45.017 80.1499 46.0738 79.6836C47.1306 79.2174 48.2651 78.9843 49.4772 78.9843C50.6739 78.9843 51.8006 79.2174 52.8574 79.6836C53.9141 80.1499 54.8466 80.7948 55.6547 81.6185C56.4784 82.4266 57.1156 83.359 57.5662 84.4158C58.0325 85.4726 58.2656 86.5915 58.2656 87.7726C58.2656 88.9848 58.0325 90.1193 57.5662 91.1761C57.1156 92.2329 56.4784 93.1653 55.6547 93.9734C54.8466 94.766 53.9141 95.3877 52.8574 95.8383C51.8006 96.289 50.6739 96.5144 49.4772 96.5144C48.2651 96.5144 47.1306 96.289 46.0738 95.8383C45.017 95.3877 44.0846 94.766 43.2764 93.9734C42.4839 93.1653 41.8622 92.2329 41.4115 91.1761C40.9609 90.1193 40.7355 88.9848 40.7355 87.7726ZM44.2322 87.7726C44.2322 88.5341 44.3643 89.249 44.6285 89.9173C44.9082 90.57 45.289 91.1528 45.7707 91.6656C46.2681 92.1629 46.8353 92.5515 47.4725 92.8312C48.1252 93.1109 48.8323 93.2508 49.5938 93.2508C50.3242 93.2508 51.0002 93.1109 51.6219 92.8312C52.2591 92.5515 52.8108 92.1629 53.277 91.6656C53.7432 91.1528 54.1084 90.57 54.3726 89.9173C54.6368 89.249 54.7689 88.5341 54.7689 87.7726C54.7689 86.9956 54.629 86.273 54.3493 85.6047C54.0851 84.9364 53.7121 84.3537 53.2304 83.8564C52.7641 83.3435 52.2124 82.9472 51.5753 82.6675C50.9381 82.3877 50.2465 82.2479 49.5006 82.2479C48.7546 82.2479 48.063 82.3877 47.4258 82.6675C46.7887 82.9472 46.2292 83.3435 45.7474 83.8564C45.2657 84.3537 44.8927 84.9364 44.6285 85.6047C44.3643 86.273 44.2322 86.9956 44.2322 87.7726ZM75.5523 94.6028C75.3503 94.8204 75.0317 95.0458 74.5966 95.2789C74.1614 95.4964 73.6564 95.6985 73.0813 95.885C72.5219 96.0715 71.9469 96.2191 71.3563 96.3279C70.7658 96.4522 70.2063 96.5144 69.6779 96.5144C68.2792 96.5144 67.0204 96.3123 65.9015 95.9083C64.7825 95.4887 63.8268 94.9137 63.0342 94.1832C62.2416 93.4373 61.6355 92.5592 61.2159 91.5491C60.7963 90.5389 60.5865 89.4355 60.5865 88.2389C60.5865 86.6692 60.8196 85.3094 61.2858 84.1594C61.7676 82.9938 62.4126 82.0303 63.2207 81.2688C64.0443 80.4918 64.9846 79.9168 66.0413 79.5438C67.1137 79.1708 68.2326 78.9843 69.3982 78.9843C70.5016 78.9843 71.5117 79.1086 72.4286 79.3573C73.3455 79.5904 74.1226 79.8857 74.7598 80.2431L73.6641 83.3901C73.3844 83.2347 73.0114 83.0793 72.5452 82.9239C72.079 82.7685 71.605 82.6442 71.1232 82.5509C70.6414 82.4421 70.2141 82.3877 69.8411 82.3877C68.9086 82.3877 68.085 82.5043 67.3701 82.7374C66.6552 82.9705 66.0491 83.3202 65.5518 83.7864C65.07 84.2526 64.7048 84.8354 64.4562 85.5348C64.2075 86.2186 64.0832 87.0189 64.0832 87.9358C64.0832 88.744 64.2231 89.4744 64.5028 90.1271C64.7825 90.7643 65.1711 91.3082 65.6684 91.7589C66.1812 92.2096 66.7795 92.5515 67.4633 92.7846C68.1627 93.0177 68.9319 93.1342 69.7711 93.1342C70.2529 93.1342 70.6958 93.1032 71.0999 93.041C71.504 92.9633 71.8459 92.8467 72.1256 92.6913V90.6166H69.1651V87.353H75.5523V94.6028ZM79.3921 79.1708H91.0944V82.4344H82.7723V86.0942H90.1386V89.3578H82.7723V93.0643H91.4208V96.3279H79.3921V79.1708ZM100.116 79.1708C101.189 79.1708 102.144 79.3107 102.983 79.5904C103.823 79.8546 104.522 80.2431 105.082 80.756C105.657 81.2533 106.092 81.8594 106.387 82.5742C106.682 83.2736 106.83 84.0662 106.83 84.952C106.83 85.6513 106.721 86.3507 106.503 87.05C106.301 87.7493 105.96 88.3865 105.478 88.9615C105.012 89.5365 104.39 90.0028 103.613 90.3602C102.836 90.7021 101.872 90.873 100.722 90.873H98.2979V96.3279H94.9178V79.1708H100.116ZM100.699 87.6095C101.212 87.6095 101.639 87.524 101.981 87.353C102.323 87.1821 102.587 86.9645 102.774 86.7003C102.976 86.4361 103.116 86.1642 103.193 85.8844C103.287 85.5892 103.333 85.3172 103.333 85.0685C103.333 84.8821 103.302 84.6489 103.24 84.3692C103.193 84.0739 103.085 83.7787 102.914 83.4834C102.743 83.1881 102.478 82.9394 102.121 82.7374C101.779 82.5354 101.313 82.4344 100.722 82.4344H98.2979V87.6095H100.699ZM103.869 89.7075L108.112 96.3279H104.172L99.8365 89.8007L103.869 89.7075ZM32.506 110.773C32.506 109.592 32.7314 108.473 33.182 107.416C33.6327 106.359 34.2544 105.427 35.0469 104.618C35.8551 103.795 36.7875 103.15 37.8443 102.684C38.9011 102.217 40.0355 101.984 41.2477 101.984C42.4444 101.984 43.5711 102.217 44.6279 102.684C45.6846 103.15 46.6171 103.795 47.4252 104.618C48.2489 105.427 48.8861 106.359 49.3367 107.416C49.803 108.473 50.0361 109.592 50.0361 110.773C50.0361 111.985 49.803 113.119 49.3367 114.176C48.8861 115.233 48.2489 116.165 47.4252 116.973C46.6171 117.766 45.6846 118.388 44.6279 118.838C43.5711 119.289 42.4444 119.514 41.2477 119.514C40.0355 119.514 38.9011 119.289 37.8443 118.838C36.7875 118.388 35.8551 117.766 35.0469 116.973C34.2544 116.165 33.6327 115.233 33.182 114.176C32.7314 113.119 32.506 111.985 32.506 110.773ZM36.0027 110.773C36.0027 111.534 36.1348 112.249 36.399 112.917C36.6787 113.57 37.0595 114.153 37.5412 114.666C38.0385 115.163 38.6058 115.551 39.243 115.831C39.8957 116.111 40.6028 116.251 41.3643 116.251C42.0947 116.251 42.7707 116.111 43.3924 115.831C44.0295 115.551 44.5812 115.163 45.0475 114.666C45.5137 114.153 45.8789 113.57 46.1431 112.917C46.4073 112.249 46.5394 111.534 46.5394 110.773C46.5394 109.996 46.3995 109.273 46.1198 108.605C45.8556 107.936 45.4826 107.354 45.0008 106.856C44.5346 106.344 43.9829 105.947 43.3457 105.667C42.7086 105.388 42.017 105.248 41.271 105.248C40.5251 105.248 39.8335 105.388 39.1963 105.667C38.5592 105.947 37.9997 106.344 37.5179 106.856C37.0362 107.354 36.6632 107.936 36.399 108.605C36.1348 109.273 36.0027 109.996 36.0027 110.773ZM53.406 102.171H56.7861V116.064H64.8518V119.328H53.406V102.171ZM66.4049 119.328L74.1443 101.495H74.3308L82.0701 119.328H78.1538L73.2118 106.786L75.6595 105.108L69.7385 119.328H66.4049ZM71.6966 113.127H76.8484L78.0373 115.971H70.6476L71.6966 113.127ZM93.7325 106.32C93.0798 105.963 92.4115 105.667 91.7277 105.434C91.0595 105.201 90.4301 105.085 89.8395 105.085C89.1091 105.085 88.5341 105.232 88.1145 105.528C87.6949 105.823 87.4851 106.266 87.4851 106.856C87.4851 107.26 87.6405 107.626 87.9513 107.952C88.2777 108.263 88.6895 108.543 89.1868 108.791C89.6996 109.04 90.228 109.265 90.772 109.467C91.2693 109.654 91.7588 109.879 92.2406 110.143C92.7379 110.392 93.1808 110.71 93.5693 111.099C93.9578 111.472 94.2686 111.946 94.5018 112.521C94.7349 113.08 94.8514 113.772 94.8514 114.596C94.8514 115.466 94.6261 116.274 94.1754 117.02C93.7247 117.766 93.0642 118.372 92.1939 118.838C91.3237 119.289 90.2513 119.514 88.977 119.514C88.3243 119.514 87.656 119.452 86.9722 119.328C86.304 119.188 85.6435 118.986 84.9908 118.722C84.338 118.442 83.7086 118.092 83.1026 117.673L84.5945 115.039C84.9985 115.334 85.4337 115.598 85.8999 115.831C86.3817 116.049 86.8634 116.22 87.3452 116.344C87.827 116.468 88.2699 116.531 88.6739 116.531C89.078 116.531 89.4821 116.476 89.8861 116.367C90.3057 116.243 90.6476 116.041 90.9118 115.761C91.1916 115.482 91.3314 115.093 91.3314 114.596C91.3314 114.254 91.2149 113.943 90.9818 113.663C90.7642 113.384 90.4611 113.127 90.0726 112.894C89.6996 112.661 89.2878 112.459 88.8371 112.288C88.3087 112.086 87.7648 111.853 87.2053 111.589C86.6459 111.324 86.1175 111.006 85.6202 110.633C85.1384 110.244 84.7421 109.77 84.4313 109.211C84.136 108.636 83.9884 107.936 83.9884 107.113C83.9884 106.118 84.206 105.256 84.6411 104.525C85.0918 103.795 85.7212 103.22 86.5293 102.8C87.3374 102.365 88.2699 102.124 89.3267 102.078C90.7098 102.078 91.8287 102.241 92.6835 102.567C93.5538 102.893 94.3308 103.282 95.0146 103.733L93.7325 106.32ZM96.7864 101.495H99.7003V114.689H96.7864V101.495ZM98.325 119.654C97.7655 119.654 97.3071 119.507 96.9496 119.211C96.5922 118.901 96.4135 118.496 96.4135 117.999C96.4135 117.517 96.5922 117.113 96.9496 116.787C97.3226 116.461 97.7811 116.297 98.325 116.297C98.8689 116.297 99.3118 116.461 99.6537 116.787C100.011 117.113 100.19 117.517 100.19 117.999C100.19 118.496 100.019 118.901 99.677 119.211C99.3351 119.507 98.8845 119.654 98.325 119.654Z" fill="white"/>
<defs>
<clipPath id="clip0_82_410">
<rect width="66.1457" height="48.3709" fill="white" transform="translate(32.9268 0.672241)"/>
</clipPath>
</defs>
</svg>
