<svg width="56" height="56" viewBox="0 0 56 56" fill="none" xmlns="http://www.w3.org/2000/svg">
<path d="M42 3.5H52.5V7H42V3.5ZM42 14H49V17.5H42V14ZM42 24.5H52.5V28H42V24.5ZM42 35H49V38.5H42V35Z" fill="#E59613"/>
<path d="M52.5 49H42C38.504 48.9877 35.0913 47.9324 32.1987 45.9689C29.3061 44.0055 27.0654 41.2235 25.7634 37.979C24.4615 34.7345 24.1575 31.1752 24.8905 27.7569C25.6235 24.3386 27.36 21.2169 29.8777 18.7915C27.5911 17.9487 25.1748 17.5116 22.7378 17.5C20.6073 17.4784 18.509 18.0207 16.6557 19.0718C14.8025 20.1229 13.2602 21.6454 12.1852 23.485C8.74475 28.7612 7 37.345 7 49H3.5C3.5 36.6555 5.4355 27.4277 9.25225 21.5722C10.6469 19.2454 12.6248 17.323 14.9902 15.9949C17.3557 14.6669 20.0268 13.9792 22.7395 14H22.75C26.6818 14.056 30.549 15.0089 34.0568 16.786C34.327 16.927 34.5558 17.1362 34.7204 17.3928C34.8849 17.6495 34.9796 17.9447 34.995 18.2492C35.0104 18.5536 34.9459 18.8569 34.8081 19.1288C34.6702 19.4007 34.4637 19.6319 34.209 19.7995C31.7137 21.4761 29.8223 23.9092 28.8129 26.7409C27.8035 29.5726 27.7294 32.6535 28.6016 35.5305C29.4737 38.4075 31.246 40.9286 33.6579 42.7232C36.0697 44.5178 38.9938 45.4911 42 45.5H52.5V49Z" fill="#E59613"/>
</svg>
