<svg width="56" height="57" viewBox="0 0 56 57" fill="none" xmlns="http://www.w3.org/2000/svg">
<path d="M12.1631 12.1937C11.5837 11.273 10.8141 10.4245 9.99021 9.71143C9.15728 10.4155 8.39677 11.273 7.81734 12.1937C7.12021 13.3039 6.81238 14.8926 7.65437 16.0209C8.19759 16.752 9.12106 16.9867 9.99021 16.9867C10.8684 16.9867 11.7828 16.743 12.3261 16.0209C13.168 14.8926 12.8512 13.3039 12.1631 12.1937Z" fill="#E59613"/>
<path d="M30.0352 3.11313C29.4557 2.19243 28.6862 1.34395 27.8623 0.630859C27.0293 1.33492 26.2688 2.19243 25.6894 3.11313C24.9923 4.22338 24.6845 5.81202 25.5264 6.94033C26.0697 7.67147 26.9931 7.90616 27.8623 7.90616C28.7405 7.90616 29.6549 7.66244 30.1981 6.94033C31.0401 5.81202 30.7323 4.22338 30.0352 3.11313Z" fill="#E59613"/>
<path d="M49.3013 12.1937C48.7218 11.273 47.9523 10.4245 47.1284 9.71143C46.2955 10.4155 45.535 11.273 44.9555 12.1937C44.2584 13.3039 43.9506 14.8926 44.7926 16.0209C45.3358 16.752 46.2592 16.9867 47.1284 16.9867C48.0066 16.9867 48.921 16.743 49.4642 16.0209C50.3062 14.8926 49.9893 13.3039 49.3013 12.1937Z" fill="#E59613"/>
<path d="M54.987 38.6593C53.3392 25.7063 42.4839 15.8946 29.4466 15.4342V12.4375C29.4466 11.6883 28.84 11.0835 28.0886 11.0835C27.3371 11.0835 26.7305 11.6883 26.7305 12.4375V15.4704C14.1822 16.3008 3.72524 25.9049 2.04127 38.4697C1.96884 39.0474 2.25856 39.607 2.78367 39.8598C3.30878 40.1215 3.93348 40.0132 4.34089 39.607C5.99771 37.9642 8.18869 37.0616 10.5245 37.0616C13.7476 37.0616 16.7082 38.8218 18.2382 41.656C18.4736 42.0983 18.9354 42.3691 19.4333 42.3691C19.9313 42.3691 20.393 42.0983 20.6284 41.656C21.905 39.3092 24.1593 37.7115 26.7215 37.2331V50.6464C26.7215 52.4517 25.2457 53.923 23.435 53.923C21.6243 53.923 20.1486 52.4517 20.1486 50.6464C20.1486 49.8972 19.542 49.2924 18.7905 49.2924C18.0391 49.2924 17.4325 49.8972 17.4325 50.6464C17.4325 53.95 20.1304 56.6309 23.435 56.6309C26.7396 56.6309 29.4376 53.941 29.4376 50.6464V37.1428C32.2261 37.4949 34.6978 39.1557 36.0558 41.656C36.2912 42.0983 36.7529 42.3691 37.2509 42.3691C37.7488 42.3691 38.2106 42.0983 38.446 41.656C39.9851 38.8218 42.9366 37.0616 46.1597 37.0616C48.6132 37.0616 50.9762 38.1086 52.6421 39.941C52.9046 40.2299 53.2758 40.3833 53.647 40.3833C53.6561 40.3833 53.6561 40.3833 53.6651 40.3833C54.4166 40.3833 55.0232 39.7785 55.0232 39.0294C55.0413 38.912 55.0232 38.7856 54.987 38.6593ZM46.1687 34.3717C42.674 34.3717 39.4147 35.9513 37.2599 38.5961C35.1052 35.9513 31.8458 34.3717 28.3511 34.3717C24.8564 34.3717 21.5971 35.9513 19.4424 38.5961C17.2876 35.9513 14.0283 34.3717 10.5336 34.3717C8.73191 34.3717 6.99361 34.7869 5.41828 35.5632C8.27923 25.4265 17.6769 18.1241 28.5051 18.1241C39.469 18.1241 48.8757 25.4987 51.6552 35.7618C49.9803 34.8591 48.0971 34.3717 46.1687 34.3717Z" fill="#E59613"/>
</svg>
