<svg width="57" height="56" viewBox="0 0 57 56" fill="none" xmlns="http://www.w3.org/2000/svg">
<path d="M54.0332 23.9614L47.9287 25.9141L48.9316 29.4502L55.0362 27.4976L54.0332 23.9614Z" fill="#E59613"/>
<path d="M44.1448 11.523L39.6367 16.3105L42.0957 18.922L46.6038 14.1344L44.1448 11.523Z" fill="#E59613"/>
<path d="M30.2325 8.23566V0H26.755V8.23566H22.5703L28.4937 14.8833L34.4287 8.23566H30.2325Z" fill="#E59613"/>
<path d="M11.7972 12.7698L9.33789 15.3809L13.8454 20.1691L16.3047 17.5581L11.7972 12.7698Z" fill="#E59613"/>
<path d="M2.50781 23.7502L1.50488 27.2864L7.60942 29.2391L8.61234 25.7029L2.50781 23.7502Z" fill="#E59613"/>
<path d="M47.5279 37.1775C47.0759 26.4305 38.7298 17.8132 28.4942 17.8132C18.2586 17.8132 9.91254 26.4182 9.46046 37.1775H0.5V40.8706H56.5V37.1775H47.5279ZM28.4942 21.5064C36.8055 21.5064 43.6099 28.4617 44.0504 37.1775H12.938C13.3785 28.4617 20.1829 21.5064 28.4942 21.5064Z" fill="#E59613"/>
<path d="M45.859 44.9207H11.1416V48.6138H45.859V44.9207Z" fill="#E59613"/>
<path d="M35.7743 52.3069H21.2266V56H35.7743V52.3069Z" fill="#E59613"/>
</svg>
