<svg width="56" height="56" viewBox="0 0 56 56" fill="none" xmlns="http://www.w3.org/2000/svg">
<path d="M46.1841 25.3457H0V20.9545H46.1841C49.2631 20.9545 51.7629 18.3637 51.7629 15.1728C51.7629 11.9819 49.2631 9.39116 46.1841 9.39116C43.1052 9.39116 40.6053 11.9819 40.6053 15.1728H36.3682C36.3682 9.56678 40.7748 5 46.1841 5C51.5934 5 56 9.56678 56 15.1728C56 20.7789 51.5934 25.3457 46.1841 25.3457Z" fill="#FEB000"/>
<path d="M32.0605 52C26.6512 52 22.2446 47.4332 22.2446 41.8272H26.4817C26.4817 45.0181 28.9816 47.6088 32.0605 47.6088C35.1395 47.6088 37.6393 45.0181 37.6393 41.8272C37.6393 38.6363 35.1395 36.0455 32.0605 36.0455H0V31.6543H32.0605C37.4699 31.6543 41.8764 36.2211 41.8764 41.8272C41.8764 47.4332 37.4699 52 32.0605 52Z" fill="#FEB000"/>
</svg>
