<svg width="56" height="56" viewBox="0 0 56 56" fill="none" xmlns="http://www.w3.org/2000/svg">
<path d="M38.5 52.5H29.75C26.5022 52.4963 23.3886 51.2045 21.092 48.908C18.7955 46.6114 17.5037 43.4978 17.5 40.25C17.5441 37.1488 18.8181 34.1921 21.042 32.0302C19.9005 31.6774 18.7123 31.4986 17.5175 31.5C8.82525 31.5823 7 42.9643 7 52.5H3.5C3.5 32.3575 11.1038 28.0595 17.4825 28C20.2119 28.0357 22.8958 28.7049 25.3225 29.9548C25.5933 30.0992 25.8213 30.3122 25.9838 30.5726C26.1462 30.833 26.2373 31.1315 26.2479 31.4382C26.2586 31.7449 26.1884 32.049 26.0444 32.32C25.9004 32.5911 25.6876 32.8194 25.4275 32.9823C23.7483 33.9017 22.427 35.3591 21.676 37.1201C20.925 38.8811 20.7879 40.8435 21.2866 42.6918C21.7854 44.5401 22.8912 46.1671 24.4261 47.3112C25.9611 48.4553 27.8362 49.0501 29.75 49H38.5V52.5Z" fill="#E59613"/>
<path fill-rule="evenodd" clip-rule="evenodd" d="M34.8846 21.5049V31.4161L40.6162 23.2525H36.4748V12.4326L31.0906 21.5049H34.8846ZM28 23.2574H33.1175V37L44 21.5H38.242V6L28 23.2574Z" fill="#E59613" stroke="#E59613"/>
</svg>
