<svg width="57" height="56" viewBox="0 0 57 56" fill="none" xmlns="http://www.w3.org/2000/svg">
<path d="M28.75 23L38.25 14.0714L36.331 12.2679L30.1071 18.1173L30.1071 3L27.3929 3L27.3929 18.1173L21.169 12.2679L19.25 14.0714L28.75 23Z" fill="#E59613"/>
<path d="M46.25 55C44.1967 55 43.1315 53.7486 42.3497 52.8315C41.628 51.9829 41.2414 51.5714 40.4167 51.5714C39.5919 51.5714 39.2053 51.9829 38.4837 52.8315C37.7019 53.7486 36.6366 55 34.5833 55C32.5301 55 31.4648 53.7486 30.683 52.8315C29.9613 51.9829 29.5747 51.5714 28.75 51.5714C27.9253 51.5714 27.5473 51.9829 26.817 52.8315C26.0352 53.7486 24.9785 55 22.9167 55C20.8634 55 19.7981 53.7486 19.0163 52.8315C18.2947 51.9829 17.9081 51.5714 17.0833 51.5714C16.2586 51.5714 15.872 51.9829 15.1504 52.8315C14.3686 53.7486 13.3119 55 11.25 55V52.4286C12.0747 52.4286 12.4613 52.0172 13.183 51.1686C13.9648 50.2515 15.0215 49 17.0833 49C19.1366 49 20.2019 50.2515 20.9837 51.1686C21.7053 52.0172 22.0919 52.4286 22.9167 52.4286C23.7414 52.4286 24.1194 52.0172 24.8497 51.1686C25.6229 50.2515 26.6882 49 28.7414 49C30.7947 49 31.86 50.2515 32.6418 51.1686C33.3634 52.0172 33.75 52.4286 34.5747 52.4286C35.3995 52.4286 35.7861 52.0172 36.5077 51.1686C37.2895 50.2515 38.3548 49 40.4081 49C42.4614 49 43.5267 50.2515 44.3084 51.1686C45.0301 52.0172 45.4167 52.4286 46.2414 52.4286V55H46.25Z" fill="#E59613"/>
</svg>
