<svg width="57" height="57" viewBox="0 0 57 57" fill="none" xmlns="http://www.w3.org/2000/svg">
<path d="M28.25 0.883302L18.75 9.81187L20.669 11.6154L26.8929 5.76595L26.8929 20.8833L29.6071 20.8833L29.6071 5.76595L35.831 11.6154L37.75 9.81187L28.25 0.883302Z" fill="#E59613"/>
<path d="M46.742 44.2037C44.5723 44.2037 43.4467 42.8692 42.6206 41.8911C41.8581 40.9861 41.4496 40.5473 40.5781 40.5473C39.7066 40.5473 39.2981 40.9861 38.5356 41.8911C37.7095 42.8692 36.5838 44.2037 34.4142 44.2037C32.2446 44.2037 31.119 42.8692 30.2929 41.8911C29.5303 40.9861 29.1218 40.5473 28.2504 40.5473C27.3789 40.5473 26.9795 40.9861 26.2079 41.8911C25.3818 42.8692 24.2652 44.2037 22.0865 44.2037C19.9169 44.2037 18.7913 42.8692 17.9652 41.8911C17.2026 40.9861 16.7941 40.5473 15.9227 40.5473C15.0512 40.5473 14.6427 40.9861 13.8801 41.8911C13.0541 42.8692 11.9375 44.2037 9.75879 44.2037V41.4614C10.6303 41.4614 11.0388 41.0226 11.8013 40.1177C12.6274 39.1396 13.744 37.8049 15.9227 37.8049C18.0923 37.8049 19.2179 39.1396 20.044 40.1177C20.8066 41.0226 21.2151 41.4614 22.0865 41.4614C22.958 41.4614 23.3574 41.0226 24.129 40.1177C24.9461 39.1396 26.0717 37.8049 28.2413 37.8049C30.4109 37.8049 31.5366 39.1396 32.3626 40.1177C33.1252 41.0226 33.5337 41.4614 34.4052 41.4614C35.2766 41.4614 35.6851 41.0226 36.4477 40.1177C37.2738 39.1396 38.3994 37.8049 40.569 37.8049C42.7386 37.8049 43.8643 39.1396 44.6904 40.1177C45.4529 41.0226 45.8614 41.4614 46.7329 41.4614V44.2037H46.742Z" fill="#E59613"/>
<path d="M46.742 35.2821C44.5723 35.2821 43.4467 33.9475 42.6206 32.9694C41.8581 32.0645 41.4496 31.6256 40.5781 31.6256C39.7066 31.6256 39.2981 32.0645 38.5356 32.9694C37.7095 33.9475 36.5838 35.2821 34.4142 35.2821C32.2446 35.2821 31.119 33.9475 30.2929 32.9694C29.5303 32.0645 29.1218 31.6256 28.2504 31.6256C27.3789 31.6256 26.9795 32.0645 26.2079 32.9694C25.3818 33.9475 24.2652 35.2821 22.0865 35.2821C19.9169 35.2821 18.7913 33.9475 17.9652 32.9694C17.2026 32.0645 16.7941 31.6256 15.9227 31.6256C15.0512 31.6256 14.6427 32.0645 13.8801 32.9694C13.0541 33.9475 11.9375 35.2821 9.75879 35.2821V32.5398C10.6303 32.5398 11.0388 32.101 11.8013 31.196C12.6274 30.2179 13.744 28.8833 15.9227 28.8833C18.0923 28.8833 19.2179 30.2179 20.044 31.196C20.8066 32.101 21.2151 32.5398 22.0865 32.5398C22.958 32.5398 23.3574 32.101 24.129 31.196C24.9461 30.2179 26.0717 28.8833 28.2413 28.8833C30.4109 28.8833 31.5366 30.2179 32.3626 31.196C33.1252 32.101 33.5337 32.5398 34.4052 32.5398C35.2766 32.5398 35.6851 32.101 36.4477 31.196C37.2738 30.2179 38.3994 28.8833 40.569 28.8833C42.7386 28.8833 43.8643 30.2179 44.6904 31.196C45.4529 32.101 45.8614 32.5398 46.7329 32.5398V35.2821H46.742Z" fill="#E59613"/>
<path d="M46.742 53.1166C44.5723 53.1166 43.4467 51.782 42.6206 50.8039C41.8581 49.8989 41.4496 49.4601 40.5781 49.4601C39.7066 49.4601 39.2981 49.8989 38.5356 50.8039C37.7095 51.782 36.5838 53.1166 34.4142 53.1166C32.2446 53.1166 31.119 51.782 30.2929 50.8039C29.5303 49.8989 29.1218 49.4601 28.2504 49.4601C27.3789 49.4601 26.9795 49.8989 26.2079 50.8039C25.3818 51.782 24.2652 53.1166 22.0865 53.1166C19.9169 53.1166 18.7913 51.782 17.9652 50.8039C17.2026 49.8989 16.7941 49.4601 15.9227 49.4601C15.0512 49.4601 14.6427 49.8989 13.8801 50.8039C13.0541 51.782 11.9375 53.1166 9.75879 53.1166V50.3742C10.6303 50.3742 11.0388 49.9355 11.8013 49.0305C12.6274 48.0524 13.744 46.7178 15.9227 46.7178C18.0923 46.7178 19.2179 48.0524 20.044 49.0305C20.8066 49.9355 21.2151 50.3742 22.0865 50.3742C22.958 50.3742 23.3574 49.9355 24.129 49.0305C24.9461 48.0524 26.0717 46.7178 28.2413 46.7178C30.4109 46.7178 31.5366 48.0524 32.3626 49.0305C33.1252 49.9355 33.5337 50.3742 34.4052 50.3742C35.2766 50.3742 35.6851 49.9355 36.4477 49.0305C37.2738 48.0524 38.3994 46.7178 40.569 46.7178C42.7386 46.7178 43.8643 48.0524 44.6904 49.0305C45.4529 49.9355 45.8614 50.3742 46.7329 50.3742V53.1166H46.742Z" fill="#E59613"/>
</svg>
