<svg width="57" height="56" viewBox="0 0 57 56" fill="none" xmlns="http://www.w3.org/2000/svg">
<path d="M53.961 23.9726L47.8564 25.9246L48.859 29.4607L54.9636 27.5087L53.961 23.9726Z" fill="#E59613"/>
<path d="M44.1253 11.5391L39.6172 16.3267L42.0762 18.9381L46.5843 14.1505L44.1253 11.5391Z" fill="#E59613"/>
<path d="M34.418 6.63532L28.483 0L22.5596 6.63532H26.7442V14.8833H30.2218V6.63532H34.418Z" fill="#E59613"/>
<path d="M11.8314 12.7885L9.37207 15.3999L13.8802 20.1882L16.3395 17.5768L11.8314 12.7885Z" fill="#E59613"/>
<path d="M2.49902 23.7627L1.49609 27.2988L7.60063 29.2515L8.60355 25.7153L2.49902 23.7627Z" fill="#E59613"/>
<path d="M47.5279 37.1775C47.0759 26.4305 38.7298 17.8132 28.4942 17.8132C18.2586 17.8132 9.91255 26.4182 9.46047 37.1775H0.5V40.8706H56.5V37.1775H47.5279ZM28.4826 21.5064C36.7939 21.5064 43.5983 28.4617 44.0388 37.1775H12.9264C13.3785 28.4617 20.1713 21.5064 28.4826 21.5064Z" fill="#E59613"/>
<path d="M45.8473 44.9207H11.1299V48.6138H45.8473V44.9207Z" fill="#E59613"/>
<path d="M35.7626 52.3069H21.2148V56H35.7626V52.3069Z" fill="#E59613"/>
</svg>
