<svg width="143" height="144" viewBox="0 0 143 144" fill="none" xmlns="http://www.w3.org/2000/svg">
<path d="M71.4848 35.1281C91.6684 35.1281 108.115 51.6589 108.115 72.0141C108.115 92.3384 91.699 108.9 71.4848 108.9C51.3013 108.9 34.8543 92.3692 34.8543 72.0141C34.8543 51.6589 51.3013 35.1281 71.4848 35.1281ZM71.4848 25.8757C46.1865 25.8757 25.666 46.5393 25.666 72.0141C25.666 97.4888 46.1865 118.152 71.4848 118.152C96.7832 118.152 117.304 97.4888 117.304 72.0141C117.304 46.5393 96.7832 25.8757 71.4848 25.8757Z" fill="#E59613"/>
<path d="M76.0789 0H66.8906V16.9626H76.0789V0Z" fill="#E59613"/>
<path d="M24.1728 17.8131L17.6758 24.3555L29.587 36.3497L36.084 29.8074L24.1728 17.8131Z" fill="#E59613"/>
<path d="M16.8451 67.3879H0V76.6403H16.8451V67.3879Z" fill="#E59613"/>
<path d="M29.5943 107.649L17.6831 119.644L24.1801 126.186L36.0913 114.192L29.5943 107.649Z" fill="#E59613"/>
<path d="M76.0789 127.035H66.8906V143.997H76.0789V127.035Z" fill="#E59613"/>
<path d="M113.394 107.642L106.897 114.185L118.808 126.179L125.305 119.637L113.394 107.642Z" fill="#E59613"/>
<path d="M143 67.3879H126.155V76.6403H143V67.3879Z" fill="#E59613"/>
<path d="M118.801 17.806L106.89 29.8003L113.387 36.3426L125.298 24.3484L118.801 17.806Z" fill="#E59613"/>
</svg>
