<svg width="56" height="56" viewBox="0 0 56 56" fill="none" xmlns="http://www.w3.org/2000/svg">
<path d="M28.0002 50.1666C22.8279 50.1666 18.4242 48.3777 14.7888 44.7999C11.1519 41.2221 9.3335 36.886 9.3335 31.7916C9.3335 29.2249 9.81961 26.8426 10.7918 24.6446C11.7641 22.4481 13.1057 20.4944 14.8168 18.7833L28.0002 5.83325L41.1835 18.7833C42.8946 20.4944 44.2363 22.4481 45.2085 24.6446C46.1807 26.8426 46.6668 29.2249 46.6668 31.7916C46.6668 36.886 44.8492 41.2221 41.2138 44.7999C37.5769 48.3777 33.1724 50.1666 28.0002 50.1666ZM28.0002 12.3666L18.0835 22.1666C16.7224 23.4499 15.7019 24.9083 15.0222 26.5416C14.3408 28.1749 14.0002 29.9249 14.0002 31.7916C14.0002 35.5638 15.3613 38.7916 18.0835 41.4749C20.8057 44.1582 24.1113 45.4999 28.0002 45.4999C31.8891 45.4999 35.1946 44.1582 37.9168 41.4749C40.6391 38.7916 42.0002 35.5638 42.0002 31.7916C42.0002 29.9249 41.6595 28.1749 40.9782 26.5416C40.2984 24.9083 39.2779 23.4499 37.9168 22.1666L28.0002 12.3666Z" fill="#E59613"/>
</svg>
