<svg width="56" height="56" viewBox="0 0 56 56" fill="none" xmlns="http://www.w3.org/2000/svg">
<path d="M38.5 52.5H29.75C26.5022 52.4963 23.3886 51.2045 21.092 48.908C18.7955 46.6114 17.5037 43.4978 17.5 40.25C17.5441 37.1488 18.8181 34.1921 21.042 32.0302C19.901 31.6753 18.7125 31.4965 17.5175 31.5C8.82525 31.5822 7 42.9643 7 52.5H3.5C3.5 32.3575 11.1037 28.0595 17.4825 28C20.2117 28.0372 22.8952 28.7063 25.3225 29.9548C25.5933 30.0992 25.8213 30.3122 25.9838 30.5726C26.1462 30.833 26.2373 31.1315 26.2479 31.4382C26.2586 31.7449 26.1884 32.049 26.0444 32.32C25.9004 32.5911 25.6876 32.8194 25.4275 32.9823C23.7483 33.9017 22.427 35.3591 21.676 37.1201C20.925 38.8811 20.7879 40.8435 21.2866 42.6918C21.7854 44.5401 22.8912 46.1671 24.4261 47.3112C25.9611 48.4553 27.8362 49.0501 29.75 49H38.5V52.5Z" fill="#E59613"/>
<path d="M31.5 42V38.5C34.2689 38.5 36.9757 37.6789 39.278 36.1406C41.5803 34.6022 43.3747 32.4157 44.4343 29.8576C45.4939 27.2994 45.7712 24.4845 45.231 21.7687C44.6908 19.053 43.3574 16.5584 41.3995 14.6005C39.4416 12.6426 36.947 11.3092 34.2313 10.769C31.5155 10.2288 28.7006 10.5061 26.1424 11.5657C23.5843 12.6253 21.3978 14.4197 19.8594 16.722C18.3211 19.0243 17.5 21.7311 17.5 24.5H14C14 21.0388 15.0264 17.6554 16.9493 14.7775C18.8722 11.8997 21.6053 9.65665 24.803 8.33212C28.0007 7.00758 31.5194 6.66102 34.9141 7.33627C38.3088 8.01151 41.427 9.67822 43.8744 12.1256C46.3218 14.5731 47.9885 17.6913 48.6637 21.0859C49.339 24.4806 48.9924 27.9993 47.6679 31.197C46.3434 34.3947 44.1003 37.1278 41.2225 39.0507C38.3446 40.9736 34.9612 42 31.5 42Z" fill="#E59613"/>
<path d="M31.5 15.75C32.4665 15.75 33.25 14.9665 33.25 14C33.25 13.0335 32.4665 12.25 31.5 12.25C30.5335 12.25 29.75 13.0335 29.75 14C29.75 14.9665 30.5335 15.75 31.5 15.75Z" fill="#E59613"/>
<path d="M40.25 30.7755L36.225 26.7505C36.5669 26.0493 36.7463 25.2801 36.75 24.5C36.7486 23.108 36.195 21.7735 35.2108 20.7892C34.2265 19.805 32.892 19.2514 31.5 19.25C30.7205 19.2536 29.9518 19.433 29.2513 19.775L25.2262 15.75L22.75 18.2245L26.775 22.2495C26.4331 22.9507 26.2537 23.7199 26.25 24.5C26.2514 25.892 26.805 27.2265 27.7892 28.2108C28.7735 29.195 30.108 29.7486 31.5 29.75C32.2795 29.7464 33.0482 29.567 33.7487 29.225L37.7737 33.25L40.25 30.7755ZM29.75 24.5C29.75 24.1539 29.8526 23.8155 30.0449 23.5278C30.2372 23.24 30.5105 23.0157 30.8303 22.8832C31.1501 22.7508 31.5019 22.7161 31.8414 22.7836C32.1809 22.8511 32.4927 23.0178 32.7374 23.2626C32.9822 23.5073 33.1489 23.8191 33.2164 24.1586C33.2839 24.4981 33.2492 24.8499 33.1168 25.1697C32.9843 25.4895 32.76 25.7628 32.4722 25.9551C32.1845 26.1474 31.8461 26.25 31.5 26.25C31.0359 26.25 30.5908 26.0656 30.2626 25.7374C29.9344 25.4092 29.75 24.9641 29.75 24.5Z" fill="#E59613"/>
</svg>
