<svg width="56" height="56" viewBox="0 0 56 56" fill="none" xmlns="http://www.w3.org/2000/svg">
<path d="M6.98145 27.0667C6.98145 23.2587 7.93345 19.7307 9.81878 16.5014C11.7041 13.2721 14.2614 10.7147 17.4908 8.82941C20.7201 6.94408 24.2294 6.01074 28.0188 6.01074C30.8561 6.01074 33.5814 6.57074 36.1761 7.67208C38.7708 8.77341 40.9921 10.2854 42.8774 12.1521C44.7628 14.0187 46.2561 16.2587 47.3574 18.8721C48.4588 21.4854 49.0188 24.1921 49.0188 27.0667C49.0188 29.9041 48.4588 32.6294 47.3574 35.2241C46.2561 37.8187 44.7441 40.0587 42.8774 41.9254C41.0108 43.7921 38.7708 45.2854 36.1761 46.3867C33.5814 47.4881 30.8748 48.0481 28.0188 48.0481C25.1628 48.0481 22.4188 47.4881 19.8241 46.3867C17.2294 45.2854 14.9894 43.7734 13.1041 41.9067C11.2188 40.0401 9.74411 37.8001 8.62411 35.2241C7.50411 32.6481 6.98145 29.9227 6.98145 27.0667ZM11.6108 27.0667C11.6108 31.4907 13.2161 35.3361 16.4454 38.6027C19.6748 41.8321 23.5201 43.4374 28.0188 43.4374C30.9681 43.4374 33.7121 42.7094 36.2134 41.2347C38.7148 39.7601 40.7308 37.7814 42.2054 35.2614C43.6801 32.7414 44.4268 30.0161 44.4268 27.0667C44.4268 24.1174 43.6801 21.3734 42.2054 18.8534C40.7308 16.3334 38.7334 14.3361 36.2134 12.8614C33.6934 11.3867 30.9681 10.6587 28.0188 10.6587C25.0694 10.6587 22.3254 11.3867 19.8241 12.8614C17.3228 14.3361 15.3068 16.3334 13.8134 18.8534C12.3201 21.3734 11.6108 24.1174 11.6108 27.0667ZM20.7388 37.9867L27.7388 13.5147C27.7574 13.3281 27.8508 13.2347 28.0188 13.2347C28.1868 13.2347 28.2801 13.3281 28.2988 13.5147L35.2801 37.9867C35.3548 38.1921 35.3361 38.3414 35.2428 38.4534C35.1494 38.5654 35.0001 38.5654 34.7948 38.4534L28.3174 36.0267C28.1308 35.9521 27.9441 35.9521 27.7761 36.0267L21.2428 38.4534C21.0561 38.5654 20.9254 38.5654 20.8508 38.4534C20.7761 38.3414 20.7014 38.1734 20.7388 37.9867Z" fill="#FEB000"/>
</svg>
