<svg width="453" height="431" viewBox="0 0 453 431" fill="none" xmlns="http://www.w3.org/2000/svg">
<g clip-path="url(#clip0_72_218)">
<path d="M221.304 84.4562L223.574 92.1041L256.943 82.0876L257 79.8046C257.539 60.3138 254.872 40.7374 249.027 21.5605C247.721 17.3085 243.947 14.7402 240.401 15.739C225.787 19.9054 212.48 28.9801 201.924 41.993C191.539 54.8062 183.792 71.4718 179.508 90.1921L178.288 95.5L220.226 82.8866C220.453 83.0293 220.992 83.5144 221.247 84.4276L221.304 84.4562ZM186.999 86.2825C195.994 53.151 216.254 29.294 241.961 21.903C242.188 22.0171 242.699 22.5022 242.983 23.4154C248.402 41.1655 250.985 59.2865 250.729 77.3219L227.802 84.1993L227.32 82.6012C226.752 80.7178 225.674 79.0627 224.255 77.9497C222.553 76.637 220.51 76.1804 218.609 76.7512L186.999 86.254V86.2825Z" fill="white"/>
<path d="M321.074 126.02C315.881 129.615 309.298 130.357 303.453 127.989L286.173 121.026C281.065 118.971 275.333 118.657 270.056 120.17L247.214 126.647C248.292 123.965 249.285 121.225 250.193 118.429L276.383 111.009C280.356 109.896 284.64 110.124 288.471 111.665L305.751 118.629C308.759 119.856 311.937 120.455 315.087 120.455C320.081 120.455 325.046 118.942 329.303 116.003L340.028 108.583L336.453 103.361L325.727 110.781C320.535 114.377 313.952 115.118 308.078 112.75L290.798 105.787C285.69 103.732 279.959 103.418 274.681 104.931L252.321 111.266C254.449 103.333 255.897 94.9999 256.691 86.4387L257.117 81.7587L224.712 91.4898C224.485 91.3471 223.946 90.862 223.691 89.9488L221.421 82.3009L178.064 95.3423L177.752 97.3399C177.128 101.563 176.645 105.872 176.333 110.21C175.113 110.467 173.864 110.581 172.616 110.581C168.899 110.581 165.295 109.497 162.202 107.413C155.364 102.819 146.71 101.906 139.048 104.959L117.625 113.492L119.952 119.399L141.375 110.866C147.107 108.583 153.576 109.268 158.712 112.721C162.855 115.489 167.65 116.973 172.644 116.973C173.779 116.973 174.914 116.888 176.021 116.745C175.936 119.228 175.907 121.711 175.964 124.193L174.858 124.621C172.673 125.477 170.374 125.905 168.019 125.905C164.302 125.905 160.698 124.793 157.606 122.738C150.767 118.143 142.113 117.23 134.452 120.284L113.028 128.816L115.355 134.723L136.778 126.191C142.51 123.908 148.98 124.593 154.115 128.046C158.258 130.814 163.054 132.269 168.048 132.269C170.828 132.269 173.581 131.813 176.191 130.899C176.191 130.957 176.191 131.042 176.191 131.099C176.333 133.782 177.553 136.322 179.483 137.92C180.958 139.147 182.717 139.689 184.448 139.461L201.927 137.035L211.064 160.806C212.086 163.46 214.129 165.401 216.484 165.971C216.966 166.086 217.42 166.143 217.874 166.143C219.293 166.143 220.626 165.629 221.733 164.659C230.586 156.668 238.049 146.481 243.894 134.324L271.758 126.419C275.731 125.306 280.015 125.535 283.846 127.047L301.126 134.01C304.134 135.237 307.312 135.808 310.462 135.808C315.456 135.808 320.421 134.295 324.678 131.356L335.403 123.936L331.828 118.714L321.102 126.134L321.074 126.02ZM238.786 130.186C233.253 142.029 226.188 151.931 217.732 159.579C217.505 159.408 217.165 159.066 216.909 158.381L205.957 129.929L183.654 133.04C183.285 132.869 182.519 131.955 182.462 130.643C182.377 129.102 182.32 127.589 182.292 126.134C182.178 121.682 182.235 117.202 182.49 112.807C182.717 108.583 183.143 104.331 183.711 100.194L217.193 90.1486L217.675 91.7466C218.981 96.1128 222.783 98.6811 226.387 97.5967L249.909 90.5195C248.86 98.995 247.1 107.157 244.717 114.89C243.071 120.227 241.085 125.363 238.815 130.158L238.786 130.186Z" fill="white"/>
<path d="M202 51.5C195.912 60.4294 188.833 78.3333 186.5 86.5C184.963 91.5 181.5 111 181 119.5C180.5 128 182 131.5 182.5 134L205.5 131.5L217.5 161.5C220.667 157.833 225.66 153.407 230 147.5C236.671 138.419 240 129.5 243.5 122C247 114.5 251 92 252 81.5C253 71 251.742 57.1429 248.5 42C246.714 33.6598 244.167 25.5 242.5 21C238.667 22.3333 228.9 25.3 224.5 28.5C219 32.5 209.5 40.5 202 51.5Z" fill="white"/>
</g>
<path d="M31.7628 268.12H41.7628V222.84H31.7628V268.12ZM37.0428 205.8C35.1228 205.8 33.5495 206.333 32.3228 207.4C31.0961 208.413 30.4828 209.773 30.4828 211.48C30.4828 213.133 31.0961 214.52 32.3228 215.64C33.6028 216.76 35.1761 217.32 37.0428 217.32C38.9095 217.32 40.4295 216.76 41.6028 215.64C42.8295 214.52 43.4428 213.133 43.4428 211.48C43.4428 209.773 42.8561 208.413 41.6828 207.4C40.5095 206.333 38.9628 205.8 37.0428 205.8ZM61.6909 192.12L78.8909 234.52L72.1709 233.16L87.7709 192.12H101.531L74.6509 253.72L47.7709 192.12H61.6909ZM97.0303 251L123.59 189.8H124.23L150.79 251H137.35L120.39 207.96L128.79 202.2L108.47 251H97.0303ZM115.19 229.72H132.87L136.95 239.48H111.59L115.19 229.72ZM159.373 251V189.72H159.453L192.173 236.12L187.213 235L219.853 189.72H220.013V251H208.413V215.88L209.133 221.88L189.213 250.2H189.053L168.573 221.88L170.573 216.36V251H159.373ZM231.633 221.64C231.633 217.587 232.406 213.747 233.953 210.12C235.499 206.493 237.633 203.293 240.353 200.52C243.126 197.693 246.326 195.48 249.953 193.88C253.579 192.28 257.473 191.48 261.633 191.48C265.739 191.48 269.606 192.28 273.233 193.88C276.859 195.48 280.059 197.693 282.833 200.52C285.659 203.293 287.846 206.493 289.393 210.12C290.993 213.747 291.793 217.587 291.793 221.64C291.793 225.8 290.993 229.693 289.393 233.32C287.846 236.947 285.659 240.147 282.833 242.92C280.059 245.64 276.859 247.773 273.233 249.32C269.606 250.867 265.739 251.64 261.633 251.64C257.473 251.64 253.579 250.867 249.953 249.32C246.326 247.773 243.126 245.64 240.353 242.92C237.633 240.147 235.499 236.947 233.953 233.32C232.406 229.693 231.633 225.8 231.633 221.64ZM243.633 221.64C243.633 224.253 244.086 226.707 244.993 229C245.953 231.24 247.259 233.24 248.913 235C250.619 236.707 252.566 238.04 254.753 239C256.993 239.96 259.419 240.44 262.033 240.44C264.539 240.44 266.859 239.96 268.993 239C271.179 238.04 273.073 236.707 274.673 235C276.273 233.24 277.526 231.24 278.433 229C279.339 226.707 279.793 224.253 279.793 221.64C279.793 218.973 279.313 216.493 278.353 214.2C277.446 211.907 276.166 209.907 274.513 208.2C272.913 206.44 271.019 205.08 268.833 204.12C266.646 203.16 264.273 202.68 261.713 202.68C259.153 202.68 256.779 203.16 254.593 204.12C252.406 205.08 250.486 206.44 248.833 208.2C247.179 209.907 245.899 211.907 244.993 214.2C244.086 216.493 243.633 218.973 243.633 221.64ZM334.798 206.36C332.558 205.133 330.264 204.12 327.918 203.32C325.624 202.52 323.464 202.12 321.438 202.12C318.931 202.12 316.958 202.627 315.518 203.64C314.078 204.653 313.358 206.173 313.358 208.2C313.358 209.587 313.891 210.84 314.958 211.96C316.078 213.027 317.491 213.987 319.198 214.84C320.958 215.693 322.771 216.467 324.638 217.16C326.344 217.8 328.024 218.573 329.678 219.48C331.384 220.333 332.904 221.427 334.238 222.76C335.571 224.04 336.638 225.667 337.438 227.64C338.238 229.56 338.638 231.933 338.638 234.76C338.638 237.747 337.864 240.52 336.318 243.08C334.771 245.64 332.504 247.72 329.518 249.32C326.531 250.867 322.851 251.64 318.478 251.64C316.238 251.64 313.944 251.427 311.598 251C309.304 250.52 307.038 249.827 304.798 248.92C302.558 247.96 300.398 246.76 298.318 245.32L303.438 236.28C304.824 237.293 306.318 238.2 307.918 239C309.571 239.747 311.224 240.333 312.878 240.76C314.531 241.187 316.051 241.4 317.438 241.4C318.824 241.4 320.211 241.213 321.598 240.84C323.038 240.413 324.211 239.72 325.118 238.76C326.078 237.8 326.558 236.467 326.558 234.76C326.558 233.587 326.158 232.52 325.358 231.56C324.611 230.6 323.571 229.72 322.238 228.92C320.958 228.12 319.544 227.427 317.998 226.84C316.184 226.147 314.318 225.347 312.398 224.44C310.478 223.533 308.664 222.44 306.958 221.16C305.304 219.827 303.944 218.2 302.878 216.28C301.864 214.307 301.358 211.907 301.358 209.08C301.358 205.667 302.104 202.707 303.598 200.2C305.144 197.693 307.304 195.72 310.078 194.28C312.851 192.787 316.051 191.96 319.678 191.8C324.424 191.8 328.264 192.36 331.198 193.48C334.184 194.6 336.851 195.933 339.198 197.48L334.798 206.36ZM369.374 251L395.934 189.8H396.574L423.134 251H409.694L392.734 207.96L401.134 202.2L380.814 251H369.374ZM387.534 229.72H405.214L409.294 239.48H383.934L387.534 229.72ZM131.776 326.12C131.136 326.653 129.936 327.373 128.176 328.28C126.469 329.187 124.362 329.987 121.856 330.68C119.349 331.373 116.576 331.693 113.536 331.64C108.896 331.533 104.736 330.707 101.056 329.16C97.429 327.56 94.3356 325.4 91.7756 322.68C89.269 319.96 87.349 316.84 86.0156 313.32C84.6823 309.8 84.0156 306.04 84.0156 302.04C84.0156 297.56 84.6823 293.453 86.0156 289.72C87.4023 285.987 89.349 282.76 91.8556 280.04C94.4156 277.32 97.4556 275.213 100.976 273.72C104.496 272.227 108.389 271.48 112.656 271.48C116.602 271.48 120.096 272.013 123.136 273.08C126.176 274.147 128.656 275.293 130.576 276.52L126.016 287.48C124.682 286.467 122.896 285.427 120.656 284.36C118.469 283.24 115.936 282.68 113.056 282.68C110.816 282.68 108.656 283.16 106.576 284.12C104.549 285.027 102.736 286.333 101.136 288.04C99.589 289.747 98.3623 291.747 97.4556 294.04C96.549 296.28 96.0956 298.733 96.0956 301.4C96.0956 304.227 96.4956 306.813 97.2956 309.16C98.149 311.507 99.349 313.533 100.896 315.24C102.442 316.893 104.282 318.173 106.416 319.08C108.602 319.987 111.056 320.44 113.776 320.44C116.922 320.44 119.616 319.933 121.856 318.92C124.096 317.907 125.802 316.84 126.976 315.72L131.776 326.12ZM139.797 301.64C139.797 297.587 140.57 293.747 142.117 290.12C143.664 286.493 145.797 283.293 148.517 280.52C151.29 277.693 154.49 275.48 158.117 273.88C161.744 272.28 165.637 271.48 169.797 271.48C173.904 271.48 177.77 272.28 181.397 273.88C185.024 275.48 188.224 277.693 190.997 280.52C193.824 283.293 196.01 286.493 197.557 290.12C199.157 293.747 199.957 297.587 199.957 301.64C199.957 305.8 199.157 309.693 197.557 313.32C196.01 316.947 193.824 320.147 190.997 322.92C188.224 325.64 185.024 327.773 181.397 329.32C177.77 330.867 173.904 331.64 169.797 331.64C165.637 331.64 161.744 330.867 158.117 329.32C154.49 327.773 151.29 325.64 148.517 322.92C145.797 320.147 143.664 316.947 142.117 313.32C140.57 309.693 139.797 305.8 139.797 301.64ZM151.797 301.64C151.797 304.253 152.25 306.707 153.157 309C154.117 311.24 155.424 313.24 157.077 315C158.784 316.707 160.73 318.04 162.917 319C165.157 319.96 167.584 320.44 170.197 320.44C172.704 320.44 175.024 319.96 177.157 319C179.344 318.04 181.237 316.707 182.837 315C184.437 313.24 185.69 311.24 186.597 309C187.504 306.707 187.957 304.253 187.957 301.64C187.957 298.973 187.477 296.493 186.517 294.2C185.61 291.907 184.33 289.907 182.677 288.2C181.077 286.44 179.184 285.08 176.997 284.12C174.81 283.16 172.437 282.68 169.877 282.68C167.317 282.68 164.944 283.16 162.757 284.12C160.57 285.08 158.65 286.44 156.997 288.2C155.344 289.907 154.064 291.907 153.157 294.2C152.25 296.493 151.797 298.973 151.797 301.64ZM259.282 325.08C258.589 325.827 257.495 326.6 256.002 327.4C254.509 328.147 252.775 328.84 250.802 329.48C248.882 330.12 246.909 330.627 244.882 331C242.855 331.427 240.935 331.64 239.122 331.64C234.322 331.64 230.002 330.947 226.162 329.56C222.322 328.12 219.042 326.147 216.322 323.64C213.602 321.08 211.522 318.067 210.082 314.6C208.642 311.133 207.922 307.347 207.922 303.24C207.922 297.853 208.722 293.187 210.322 289.24C211.975 285.24 214.189 281.933 216.962 279.32C219.789 276.653 223.015 274.68 226.642 273.4C230.322 272.12 234.162 271.48 238.162 271.48C241.949 271.48 245.415 271.907 248.562 272.76C251.709 273.56 254.375 274.573 256.562 275.8L252.802 286.6C251.842 286.067 250.562 285.533 248.962 285C247.362 284.467 245.735 284.04 244.082 283.72C242.429 283.347 240.962 283.16 239.682 283.16C236.482 283.16 233.655 283.56 231.202 284.36C228.749 285.16 226.669 286.36 224.962 287.96C223.309 289.56 222.055 291.56 221.202 293.96C220.349 296.307 219.922 299.053 219.922 302.2C219.922 304.973 220.402 307.48 221.362 309.72C222.322 311.907 223.655 313.773 225.362 315.32C227.122 316.867 229.175 318.04 231.522 318.84C233.922 319.64 236.562 320.04 239.442 320.04C241.095 320.04 242.615 319.933 244.002 319.72C245.389 319.453 246.562 319.053 247.522 318.52V311.4H237.362V300.2H259.282V325.08ZM272.459 272.12H312.619V283.32H284.059V295.88H309.339V307.08H284.059V319.8H313.739V331H272.459V272.12ZM343.581 272.12C347.261 272.12 350.541 272.6 353.421 273.56C356.301 274.467 358.701 275.8 360.621 277.56C362.594 279.267 364.087 281.347 365.101 283.8C366.114 286.2 366.621 288.92 366.621 291.96C366.621 294.36 366.247 296.76 365.501 299.16C364.807 301.56 363.634 303.747 361.981 305.72C360.381 307.693 358.247 309.293 355.581 310.52C352.914 311.693 349.607 312.28 345.661 312.28H337.341V331H325.741V272.12H343.581ZM345.581 301.08C347.341 301.08 348.807 300.787 349.981 300.2C351.154 299.613 352.061 298.867 352.701 297.96C353.394 297.053 353.874 296.12 354.141 295.16C354.461 294.147 354.621 293.213 354.621 292.36C354.621 291.72 354.514 290.92 354.301 289.96C354.141 288.947 353.767 287.933 353.181 286.92C352.594 285.907 351.687 285.053 350.461 284.36C349.287 283.667 347.687 283.32 345.661 283.32H337.341V301.08H345.581ZM356.461 308.28L371.021 331H357.501L342.621 308.6L356.461 308.28ZM111.555 381.64C111.555 377.587 112.328 373.747 113.875 370.12C115.421 366.493 117.555 363.293 120.275 360.52C123.048 357.693 126.248 355.48 129.875 353.88C133.501 352.28 137.395 351.48 141.555 351.48C145.661 351.48 149.528 352.28 153.155 353.88C156.781 355.48 159.981 357.693 162.755 360.52C165.581 363.293 167.768 366.493 169.315 370.12C170.915 373.747 171.715 377.587 171.715 381.64C171.715 385.8 170.915 389.693 169.315 393.32C167.768 396.947 165.581 400.147 162.755 402.92C159.981 405.64 156.781 407.773 153.155 409.32C149.528 410.867 145.661 411.64 141.555 411.64C137.395 411.64 133.501 410.867 129.875 409.32C126.248 407.773 123.048 405.64 120.275 402.92C117.555 400.147 115.421 396.947 113.875 393.32C112.328 389.693 111.555 385.8 111.555 381.64ZM123.555 381.64C123.555 384.253 124.008 386.707 124.915 389C125.875 391.24 127.181 393.24 128.835 395C130.541 396.707 132.488 398.04 134.675 399C136.915 399.96 139.341 400.44 141.955 400.44C144.461 400.44 146.781 399.96 148.915 399C151.101 398.04 152.995 396.707 154.595 395C156.195 393.24 157.448 391.24 158.355 389C159.261 386.707 159.715 384.253 159.715 381.64C159.715 378.973 159.235 376.493 158.275 374.2C157.368 371.907 156.088 369.907 154.435 368.2C152.835 366.44 150.941 365.08 148.755 364.12C146.568 363.16 144.195 362.68 141.635 362.68C139.075 362.68 136.701 363.16 134.515 364.12C132.328 365.08 130.408 366.44 128.755 368.2C127.101 369.907 125.821 371.907 124.915 374.2C124.008 376.493 123.555 378.973 123.555 381.64ZM183.28 352.12H194.88V399.8H222.56V411H183.28V352.12ZM227.89 411L254.45 349.8H255.09L281.65 411H268.21L251.25 367.96L259.65 362.2L239.33 411H227.89ZM246.05 389.72H263.73L267.81 399.48H242.45L246.05 389.72ZM321.673 366.36C319.433 365.133 317.139 364.12 314.793 363.32C312.499 362.52 310.339 362.12 308.313 362.12C305.806 362.12 303.833 362.627 302.393 363.64C300.953 364.653 300.233 366.173 300.233 368.2C300.233 369.587 300.766 370.84 301.833 371.96C302.953 373.027 304.366 373.987 306.073 374.84C307.833 375.693 309.646 376.467 311.513 377.16C313.219 377.8 314.899 378.573 316.553 379.48C318.259 380.333 319.779 381.427 321.113 382.76C322.446 384.04 323.513 385.667 324.313 387.64C325.113 389.56 325.513 391.933 325.513 394.76C325.513 397.747 324.739 400.52 323.193 403.08C321.646 405.64 319.379 407.72 316.393 409.32C313.406 410.867 309.726 411.64 305.353 411.64C303.113 411.64 300.819 411.427 298.473 411C296.179 410.52 293.913 409.827 291.673 408.92C289.433 407.96 287.273 406.76 285.193 405.32L290.313 396.28C291.699 397.293 293.193 398.2 294.793 399C296.446 399.747 298.099 400.333 299.753 400.76C301.406 401.187 302.926 401.4 304.313 401.4C305.699 401.4 307.086 401.213 308.473 400.84C309.913 400.413 311.086 399.72 311.993 398.76C312.953 397.8 313.433 396.467 313.433 394.76C313.433 393.587 313.033 392.52 312.233 391.56C311.486 390.6 310.446 389.72 309.113 388.92C307.833 388.12 306.419 387.427 304.873 386.84C303.059 386.147 301.193 385.347 299.273 384.44C297.353 383.533 295.539 382.44 293.833 381.16C292.179 379.827 290.819 378.2 289.753 376.28C288.739 374.307 288.233 371.907 288.233 369.08C288.233 365.667 288.979 362.707 290.473 360.2C292.019 357.693 294.179 355.72 296.953 354.28C299.726 352.787 302.926 351.96 306.553 351.8C311.299 351.8 315.139 352.36 318.073 353.48C321.059 354.6 323.726 355.933 326.073 357.48L321.673 366.36ZM332.153 349.8H342.153V395.08H332.153V349.8ZM337.433 412.12C335.513 412.12 333.94 411.613 332.713 410.6C331.487 409.533 330.873 408.147 330.873 406.44C330.873 404.787 331.487 403.4 332.713 402.28C333.993 401.16 335.567 400.6 337.433 400.6C339.3 400.6 340.82 401.16 341.993 402.28C343.22 403.4 343.833 404.787 343.833 406.44C343.833 408.147 343.247 409.533 342.073 410.6C340.9 411.613 339.353 412.12 337.433 412.12Z" fill="white"/>
<defs>
<clipPath id="clip0_72_218">
<rect width="227" height="166" fill="white" transform="translate(113)"/>
</clipPath>
</defs>
</svg>
