<svg width="476" height="481" viewBox="0 0 476 481" fill="none" xmlns="http://www.w3.org/2000/svg">
<g clip-path="url(#clip0_72_216)">
<path d="M211.5 45C208.7 49 204.167 66 202 73L222 67.5C226.167 66.1667 235 62.5 237 62.5C239.5 62.5 240.5 63.5 242 65C243.2 66.2 244.167 68.8333 244.5 70L270 62.5V49.5C270 45 268 39.5 267 33.5C266 27.5 264 19 263 14.5C262.2 10.9 260.667 7 260 5.5C258.667 5.83333 255.3 6.8 252.5 8C249 9.5 244.5 12.5 240.5 14.5C236.5 16.5 229.5 23.5 226 27.5C222.5 31.5 215 40 211.5 45Z" fill="white" stroke="white"/>
<path d="M229.5 88.5L194 99.5L192 117.5C192.167 121.5 192.4 129.8 192 131C191.6 132.2 193.833 133.833 195 134.5L217 132L223 147L228 159.5C228.333 160 229.5 160.7 231.5 159.5C234 158 237 153 241.5 147C246 141 251.5 131.5 253 128.5C254.5 125.5 259.5 106.5 260.5 101C261.3 96.6 262.167 90.8333 262.5 88.5L259.5 89.5L250 92.5C246.5 93.6667 239 96.1 237 96.5C234.5 97 233 96 231.5 94C230.3 92.4 229.667 89.6667 229.5 88.5Z" fill="white" stroke="white"/>
<path d="M238.795 68.9169L241.065 76.5649L274.434 66.5484L274.49 64.2654C275.029 44.7746 272.362 25.1982 266.517 6.02128C265.212 1.76926 261.438 -0.799074 257.891 0.199722C243.278 4.36613 229.97 13.4409 219.414 26.4538C209.029 39.2669 201.283 55.9326 196.998 74.6529L195.778 79.9608L237.716 67.3474C237.943 67.4901 238.482 67.9752 238.738 68.8884L238.795 68.9169ZM204.489 70.7433C213.484 37.6118 233.744 13.7548 259.452 6.36372C259.679 6.47787 260.189 6.963 260.473 7.87619C265.893 25.6262 268.475 43.7473 268.219 61.7827L245.292 68.6601L244.81 67.062C244.243 65.1786 243.164 63.5234 241.746 62.4105C240.043 61.0978 238 60.6412 236.099 61.2119L204.489 70.7148V70.7433Z" fill="white"/>
<path d="M332.574 126.02C327.381 129.615 320.798 130.357 314.953 127.989L297.673 121.026C292.565 118.971 286.833 118.657 281.556 120.17L258.714 126.647C259.792 123.965 260.785 121.225 261.693 118.429L287.883 111.009C291.856 109.896 296.14 110.124 299.971 111.665L317.251 118.629C320.259 119.856 323.437 120.455 326.587 120.455C331.581 120.455 336.546 118.942 340.803 116.003L351.528 108.583L347.953 103.361L337.227 110.781C332.035 114.377 325.452 115.118 319.578 112.75L302.298 105.787C297.19 103.732 291.459 103.418 286.181 104.931L263.821 111.266C265.949 103.333 267.397 94.9999 268.191 86.4387L268.617 81.7587L236.212 91.4898C235.985 91.3471 235.446 90.862 235.191 89.9488L232.921 82.3009L189.564 95.3423L189.252 97.3399C188.628 101.563 188.145 105.872 187.833 110.21C186.613 110.467 185.364 110.581 184.116 110.581C180.399 110.581 176.795 109.497 173.702 107.413C166.864 102.819 158.21 101.906 150.548 104.959L129.125 113.492L131.452 119.399L152.875 110.866C158.607 108.583 165.076 109.268 170.212 112.721C174.355 115.489 179.15 116.973 184.144 116.973C185.279 116.973 186.414 116.888 187.521 116.745C187.436 119.228 187.407 121.711 187.464 124.193L186.358 124.621C184.173 125.477 181.874 125.905 179.519 125.905C175.802 125.905 172.198 124.793 169.106 122.738C162.267 118.143 153.613 117.23 145.952 120.284L124.528 128.816L126.855 134.723L148.278 126.191C154.01 123.908 160.48 124.593 165.615 128.046C169.758 130.814 174.554 132.269 179.548 132.269C182.328 132.269 185.081 131.813 187.691 130.899C187.691 130.957 187.691 131.042 187.691 131.099C187.833 133.782 189.053 136.322 190.983 137.92C192.458 139.147 194.217 139.689 195.948 139.461L213.427 137.035L222.564 160.806C223.586 163.46 225.629 165.401 227.984 165.971C228.466 166.086 228.92 166.143 229.374 166.143C230.793 166.143 232.126 165.629 233.233 164.659C242.086 156.668 249.549 146.481 255.394 134.324L283.258 126.419C287.231 125.306 291.515 125.535 295.346 127.047L312.626 134.01C315.634 135.237 318.812 135.808 321.962 135.808C326.956 135.808 331.921 134.295 336.178 131.356L346.903 123.936L343.328 118.714L332.602 126.134L332.574 126.02ZM250.286 130.186C244.753 142.029 237.688 151.931 229.232 159.579C229.005 159.408 228.665 159.066 228.409 158.381L217.457 129.929L195.154 133.04C194.785 132.869 194.019 131.955 193.962 130.643C193.877 129.102 193.82 127.589 193.792 126.134C193.678 121.682 193.735 117.202 193.99 112.807C194.217 108.583 194.643 104.331 195.211 100.194L228.693 90.1486L229.175 91.7466C230.481 96.1128 234.283 98.6811 237.887 97.5967L261.409 90.5195C260.36 98.995 258.6 107.157 256.217 114.89C254.571 120.227 252.585 125.363 250.315 130.158L250.286 130.186Z" fill="white"/>
</g>
<path d="M8.38 268.12H18.38V222.84H8.38V268.12ZM13.66 205.8C11.74 205.8 10.1667 206.333 8.94 207.4C7.71333 208.413 7.1 209.773 7.1 211.48C7.1 213.133 7.71333 214.52 8.94 215.64C10.22 216.76 11.7933 217.32 13.66 217.32C15.5267 217.32 17.0467 216.76 18.22 215.64C19.4467 214.52 20.06 213.133 20.06 211.48C20.06 209.773 19.4733 208.413 18.3 207.4C17.1267 206.333 15.58 205.8 13.66 205.8ZM38.3081 192.12L55.5081 234.52L48.7881 233.16L64.3881 192.12H78.1481L51.2681 253.72L24.3881 192.12H38.3081ZM73.6475 251L100.208 189.8H100.848L127.408 251H113.968L97.0075 207.96L105.408 202.2L85.0875 251H73.6475ZM91.8075 229.72H109.488L113.568 239.48H88.2075L91.8075 229.72ZM143.224 232.68L121.544 192.12H135.864L151.064 222.68L147.624 222.92L162.584 192.12H176.904L154.824 232.68V251H143.224V232.68ZM170.21 251L196.77 189.8H197.41L223.97 251H210.53L193.57 207.96L201.97 202.2L181.65 251H170.21ZM188.37 229.72H206.05L210.13 239.48H184.77L188.37 229.72ZM267.449 192.12L284.649 234.52L277.929 233.16L293.529 192.12H307.289L280.409 253.72L253.529 192.12H267.449ZM302.788 251L329.348 189.8H329.988L356.548 251H343.108L326.148 207.96L334.548 202.2L314.228 251H302.788ZM320.948 229.72H338.628L342.708 239.48H317.348L320.948 229.72ZM372.364 232.68L350.684 192.12H365.004L380.204 222.68L376.764 222.92L391.724 192.12H406.044L383.964 232.68V251H372.364V232.68ZM399.351 251L425.911 189.8H426.551L453.111 251H439.671L422.711 207.96L431.111 202.2L410.791 251H399.351ZM417.511 229.72H435.191L439.271 239.48H413.911L417.511 229.72ZM469.134 243.96C467.96 246.787 466.787 249.587 465.614 252.36C464.44 255.133 463.267 257.933 462.094 260.76H453.134C454.2 257.933 455.24 255.133 456.254 252.36C457.32 249.587 458.387 246.787 459.454 243.96H469.134ZM52.6319 331L79.1919 269.8H79.8319L106.392 331H92.9519L75.9919 287.96L84.3919 282.2L64.0719 331H52.6319ZM70.7919 309.72H88.4719L92.5519 319.48H67.1919L70.7919 309.72ZM152.513 319.64H170.753V331H137.313L152.513 319.64ZM107.313 301.64C107.313 297.587 108.086 293.747 109.633 290.12C111.179 286.493 113.313 283.293 116.033 280.52C118.806 277.693 122.006 275.48 125.633 273.88C129.259 272.28 133.153 271.48 137.313 271.48C141.419 271.48 145.286 272.28 148.913 273.88C152.539 275.48 155.739 277.693 158.513 280.52C161.339 283.293 163.526 286.493 165.073 290.12C166.673 293.747 167.473 297.587 167.473 301.64C167.473 305.8 166.673 309.693 165.073 313.32C163.526 316.947 161.339 320.147 158.513 322.92C155.739 325.64 152.539 327.773 148.913 329.32C145.286 330.867 141.419 331.64 137.313 331.64C133.153 331.64 129.259 330.867 125.633 329.32C122.006 327.773 118.806 325.64 116.033 322.92C113.313 320.147 111.179 316.947 109.633 313.32C108.086 309.693 107.313 305.8 107.313 301.64ZM119.313 301.64C119.313 304.2 119.766 306.627 120.673 308.92C121.633 311.16 122.939 313.16 124.593 314.92C126.299 316.627 128.246 317.96 130.433 318.92C132.673 319.88 135.099 320.36 137.713 320.36C140.219 320.36 142.539 319.88 144.673 318.92C146.859 317.96 148.753 316.627 150.352 314.92C151.953 313.213 153.206 311.24 154.113 309C155.019 306.707 155.473 304.253 155.473 301.64C155.473 299.08 154.993 296.68 154.033 294.44C153.126 292.147 151.846 290.147 150.193 288.44C148.593 286.733 146.699 285.4 144.513 284.44C142.326 283.48 139.953 283 137.393 283C134.833 283 132.459 283.48 130.273 284.44C128.086 285.4 126.166 286.733 124.513 288.44C122.859 290.147 121.579 292.147 120.673 294.44C119.766 296.68 119.313 299.08 119.313 301.64ZM192.719 309.24C192.719 311.107 193.279 312.893 194.399 314.6C195.519 316.307 196.985 317.693 198.799 318.76C200.665 319.827 202.692 320.36 204.879 320.36C207.279 320.36 209.412 319.827 211.279 318.76C213.145 317.693 214.612 316.307 215.679 314.6C216.799 312.893 217.359 311.107 217.359 309.24V272.12H228.799V309.48C228.799 313.8 227.732 317.64 225.599 321C223.465 324.307 220.585 326.92 216.959 328.84C213.332 330.707 209.305 331.64 204.879 331.64C200.505 331.64 196.505 330.707 192.879 328.84C189.305 326.92 186.452 324.307 184.319 321C182.185 317.64 181.119 313.8 181.119 309.48V272.12H192.719V309.24ZM242.788 272.12H254.388V331H242.788V272.12ZM263.508 257.48L251.668 268.28H244.868L251.108 257.48H263.508ZM348.32 333.4L303.68 293.08L307.12 295L307.36 331H295.6V269.8H296.08L339.76 309.96L337.2 308.84L336.96 272.12H348.64V333.4H348.32ZM360.203 301.64C360.203 297.587 360.976 293.747 362.523 290.12C364.07 286.493 366.203 283.293 368.923 280.52C371.696 277.693 374.896 275.48 378.523 273.88C382.15 272.28 386.043 271.48 390.203 271.48C394.31 271.48 398.176 272.28 401.803 273.88C405.43 275.48 408.63 277.693 411.403 280.52C414.23 283.293 416.416 286.493 417.963 290.12C419.563 293.747 420.363 297.587 420.363 301.64C420.363 305.8 419.563 309.693 417.963 313.32C416.416 316.947 414.23 320.147 411.403 322.92C408.63 325.64 405.43 327.773 401.803 329.32C398.176 330.867 394.31 331.64 390.203 331.64C386.043 331.64 382.15 330.867 378.523 329.32C374.896 327.773 371.696 325.64 368.923 322.92C366.203 320.147 364.07 316.947 362.523 313.32C360.976 309.693 360.203 305.8 360.203 301.64ZM372.203 301.64C372.203 304.253 372.656 306.707 373.563 309C374.523 311.24 375.83 313.24 377.483 315C379.19 316.707 381.136 318.04 383.323 319C385.563 319.96 387.99 320.44 390.603 320.44C393.11 320.44 395.43 319.96 397.563 319C399.75 318.04 401.643 316.707 403.243 315C404.843 313.24 406.096 311.24 407.003 309C407.91 306.707 408.363 304.253 408.363 301.64C408.363 298.973 407.883 296.493 406.923 294.2C406.016 291.907 404.736 289.907 403.083 288.2C401.483 286.44 399.59 285.08 397.403 284.12C395.216 283.16 392.843 282.68 390.283 282.68C387.723 282.68 385.35 283.16 383.163 284.12C380.976 285.08 379.056 286.44 377.403 288.2C375.75 289.907 374.47 291.907 373.563 294.2C372.656 296.493 372.203 298.973 372.203 301.64ZM61.7997 352.12V411H50.1997V387.08H23.8797V411H12.2797V352.12H23.8797V375.88H50.1997V352.12H61.7997ZM70.3272 411L96.8872 349.8H97.5272L124.087 411H110.647L93.6872 367.96L102.087 362.2L81.7672 411H70.3272ZM88.4872 389.72H106.167L110.247 399.48H84.8872L88.4872 389.72ZM139.903 392.68L118.223 352.12H132.543L147.743 382.68L144.303 382.92L159.263 352.12H173.583L151.503 392.68V411H139.903V392.68ZM226.213 352.12C231.067 352.12 235.173 352.947 238.533 354.6C241.893 356.2 244.453 358.493 246.213 361.48C247.973 364.413 248.853 367.907 248.853 371.96C248.853 374.36 248.48 376.787 247.733 379.24C247.04 381.64 245.893 383.827 244.293 385.8C242.747 387.773 240.64 389.373 237.973 390.6C235.36 391.773 232.133 392.36 228.293 392.36H219.973V411H208.373V352.12H226.213ZM228.213 381.08C229.973 381.08 231.44 380.787 232.613 380.2C233.787 379.56 234.693 378.787 235.333 377.88C236.027 376.92 236.507 375.933 236.773 374.92C237.093 373.907 237.253 373.027 237.253 372.28C237.253 371.693 237.147 370.92 236.933 369.96C236.773 368.947 236.4 367.933 235.813 366.92C235.227 365.907 234.32 365.053 233.093 364.36C231.92 363.667 230.32 363.32 228.293 363.32H219.973V381.08H228.213ZM259.233 352.12H270.833V399.8H298.513V411H259.233V352.12ZM303.843 411L330.403 349.8H331.043L357.603 411H344.163L327.203 367.96L335.603 362.2L315.283 411H303.843ZM322.003 389.72H339.683L343.763 399.48H318.403L322.003 389.72ZM373.419 392.68L351.739 352.12H366.059L381.259 382.68L377.819 382.92L392.779 352.12H407.099L385.019 392.68V411H373.419V392.68ZM400.405 411L426.965 349.8H427.605L454.165 411H440.725L423.765 367.96L432.165 362.2L411.845 411H400.405ZM418.565 389.72H436.245L440.325 399.48H414.965L418.565 389.72ZM458.028 349.8H468.028V395.08H458.028V349.8ZM463.308 412.12C461.388 412.12 459.815 411.613 458.588 410.6C457.362 409.533 456.748 408.147 456.748 406.44C456.748 404.787 457.362 403.4 458.588 402.28C459.868 401.16 461.442 400.6 463.308 400.6C465.175 400.6 466.695 401.16 467.868 402.28C469.095 403.4 469.708 404.787 469.708 406.44C469.708 408.147 469.122 409.533 467.948 410.6C466.775 411.613 465.228 412.12 463.308 412.12Z" fill="white"/>
<path d="M115.987 480.816C114.979 480.816 114.147 480.592 113.491 480.144C112.835 479.696 112.323 479.016 111.955 478.104C111.603 477.192 111.355 476.032 111.211 474.624C111.067 473.2 110.995 471.52 110.995 469.584C110.995 467.648 111.067 465.976 111.211 464.568C111.355 463.144 111.603 461.976 111.955 461.064C112.323 460.152 112.835 459.48 113.491 459.048C114.147 458.6 114.979 458.376 115.987 458.376C116.131 458.376 116.251 458.432 116.347 458.544C116.459 458.64 116.515 458.76 116.515 458.904V459.24C116.515 459.384 116.467 459.512 116.371 459.624C116.275 459.72 116.171 459.768 116.059 459.768C115.387 459.768 114.819 459.928 114.355 460.248C113.891 460.552 113.515 461.08 113.227 461.832C112.939 462.568 112.731 463.568 112.603 464.832C112.475 466.096 112.411 467.68 112.411 469.584C112.411 471.488 112.475 473.072 112.603 474.336C112.731 475.6 112.939 476.6 113.227 477.336C113.515 478.088 113.891 478.624 114.355 478.944C114.819 479.264 115.387 479.424 116.059 479.424C116.171 479.424 116.275 479.472 116.371 479.568C116.467 479.68 116.515 479.808 116.515 479.952V480.288C116.515 480.432 116.459 480.552 116.347 480.648C116.251 480.76 116.131 480.816 115.987 480.816ZM119.122 477C118.962 477 118.834 476.952 118.738 476.856C118.642 476.76 118.594 476.632 118.594 476.472V460.728C118.594 460.568 118.642 460.44 118.738 460.344C118.834 460.248 118.962 460.2 119.122 460.2H119.578C119.738 460.2 119.866 460.248 119.962 460.344C120.058 460.44 120.106 460.568 120.106 460.728V476.472C120.106 476.632 120.058 476.76 119.962 476.856C119.866 476.952 119.738 477 119.578 477H119.122ZM124.305 477C124.145 477 124.017 476.952 123.921 476.856C123.825 476.76 123.777 476.632 123.777 476.472V465.048C123.777 464.888 123.825 464.76 123.921 464.664C124.017 464.568 124.145 464.52 124.305 464.52H124.713C124.873 464.52 125.001 464.568 125.097 464.664C125.193 464.76 125.241 464.888 125.241 465.048V466.176C125.673 465.616 126.193 465.16 126.801 464.808C127.425 464.456 128.249 464.28 129.273 464.28C130.361 464.28 131.265 464.52 131.985 465C132.721 465.464 133.265 466.104 133.617 466.92C133.985 467.72 134.169 468.632 134.169 469.656V476.472C134.169 476.632 134.121 476.76 134.025 476.856C133.929 476.952 133.801 477 133.641 477H133.233C133.073 477 132.945 476.952 132.849 476.856C132.753 476.76 132.705 476.632 132.705 476.472V469.776C132.705 468.496 132.393 467.496 131.769 466.776C131.145 466.04 130.233 465.672 129.033 465.672C127.897 465.672 126.977 466.04 126.273 466.776C125.585 467.496 125.241 468.496 125.241 469.776V476.472C125.241 476.632 125.193 476.76 125.097 476.856C125.001 476.952 124.873 477 124.713 477H124.305ZM141.418 477C140.586 477 139.93 476.824 139.45 476.472C138.97 476.12 138.634 475.64 138.442 475.032C138.25 474.424 138.154 473.744 138.154 472.992V465.912H136.282C136.122 465.912 135.994 465.864 135.898 465.768C135.802 465.672 135.754 465.544 135.754 465.384V465.048C135.754 464.888 135.802 464.76 135.898 464.664C135.994 464.568 136.122 464.52 136.282 464.52H138.154V460.488C138.154 460.328 138.202 460.2 138.298 460.104C138.394 460.008 138.522 459.96 138.682 459.96H139.09C139.25 459.96 139.378 460.008 139.474 460.104C139.57 460.2 139.618 460.328 139.618 460.488V464.52H142.594C142.754 464.52 142.882 464.568 142.978 464.664C143.074 464.76 143.122 464.888 143.122 465.048V465.384C143.122 465.544 143.074 465.672 142.978 465.768C142.882 465.864 142.754 465.912 142.594 465.912H139.618V472.896C139.618 473.744 139.754 474.408 140.026 474.888C140.314 475.368 140.818 475.608 141.538 475.608H142.834C142.994 475.608 143.122 475.656 143.218 475.752C143.314 475.848 143.362 475.976 143.362 476.136V476.472C143.362 476.632 143.314 476.76 143.218 476.856C143.122 476.952 142.994 477 142.834 477H141.418ZM145.843 477C145.683 477 145.555 476.952 145.459 476.856C145.363 476.76 145.315 476.632 145.315 476.472V465.072C145.315 464.912 145.363 464.784 145.459 464.688C145.555 464.576 145.683 464.52 145.843 464.52H146.227C146.387 464.52 146.515 464.576 146.611 464.688C146.723 464.784 146.779 464.912 146.779 465.072V466.176C147.067 465.616 147.483 465.2 148.027 464.928C148.571 464.656 149.243 464.52 150.043 464.52H150.931C151.091 464.52 151.219 464.568 151.315 464.664C151.411 464.76 151.459 464.888 151.459 465.048V465.384C151.459 465.544 151.411 465.672 151.315 465.768C151.219 465.864 151.091 465.912 150.931 465.912H149.899C148.939 465.912 148.179 466.192 147.619 466.752C147.059 467.312 146.779 468.072 146.779 469.032V476.472C146.779 476.632 146.723 476.76 146.611 476.856C146.515 476.952 146.387 477 146.227 477H145.843ZM157.601 477.24C156.449 477.24 155.481 477 154.697 476.52C153.929 476.04 153.337 475.384 152.921 474.552C152.521 473.72 152.305 472.792 152.273 471.768C152.257 471.528 152.249 471.192 152.249 470.76C152.249 470.328 152.257 469.992 152.273 469.752C152.305 468.712 152.521 467.784 152.921 466.968C153.337 466.136 153.929 465.48 154.697 465C155.481 464.52 156.449 464.28 157.601 464.28C158.753 464.28 159.713 464.52 160.481 465C161.265 465.48 161.857 466.136 162.257 466.968C162.673 467.784 162.897 468.712 162.929 469.752C162.945 469.992 162.953 470.328 162.953 470.76C162.953 471.192 162.945 471.528 162.929 471.768C162.897 472.792 162.673 473.72 162.257 474.552C161.857 475.384 161.265 476.04 160.481 476.52C159.713 477 158.753 477.24 157.601 477.24ZM157.601 475.848C158.721 475.848 159.633 475.488 160.337 474.768C161.041 474.048 161.417 473.008 161.465 471.648C161.481 471.408 161.489 471.112 161.489 470.76C161.489 470.408 161.481 470.112 161.465 469.872C161.417 468.496 161.041 467.456 160.337 466.752C159.633 466.032 158.721 465.672 157.601 465.672C156.481 465.672 155.569 466.032 154.865 466.752C154.161 467.456 153.785 468.496 153.737 469.872C153.721 470.112 153.713 470.408 153.713 470.76C153.713 471.112 153.721 471.408 153.737 471.648C153.785 473.008 154.161 474.048 154.865 474.768C155.569 475.488 156.481 475.848 157.601 475.848ZM170.216 477.24C169.288 477.24 168.496 477.072 167.84 476.736C167.2 476.4 166.68 475.952 166.28 475.392C165.88 474.832 165.584 474.208 165.392 473.52C165.216 472.832 165.112 472.136 165.08 471.432C165.064 471.192 165.056 470.968 165.056 470.76C165.056 470.552 165.064 470.328 165.08 470.088C165.112 469.384 165.216 468.688 165.392 468C165.584 467.312 165.88 466.688 166.28 466.128C166.68 465.568 167.2 465.12 167.84 464.784C168.496 464.448 169.288 464.28 170.216 464.28C171.208 464.28 172.024 464.464 172.664 464.832C173.32 465.2 173.848 465.648 174.248 466.176V460.488C174.248 460.328 174.296 460.2 174.392 460.104C174.488 460.008 174.616 459.96 174.776 459.96H175.184C175.344 459.96 175.472 460.008 175.568 460.104C175.664 460.2 175.712 460.328 175.712 460.488V476.472C175.712 476.632 175.664 476.76 175.568 476.856C175.472 476.952 175.344 477 175.184 477H174.776C174.616 477 174.488 476.952 174.392 476.856C174.296 476.76 174.248 476.632 174.248 476.472V475.344C173.848 475.888 173.32 476.344 172.664 476.712C172.024 477.064 171.208 477.24 170.216 477.24ZM170.36 475.848C171.272 475.848 172.008 475.632 172.568 475.2C173.128 474.768 173.544 474.232 173.816 473.592C174.088 472.936 174.232 472.28 174.248 471.624C174.264 471.384 174.272 471.072 174.272 470.688C174.272 470.304 174.264 469.992 174.248 469.752C174.232 469.112 174.08 468.48 173.792 467.856C173.52 467.232 173.104 466.712 172.544 466.296C171.984 465.88 171.256 465.672 170.36 465.672C169.432 465.672 168.688 465.88 168.128 466.296C167.584 466.712 167.192 467.256 166.952 467.928C166.712 468.6 166.576 469.32 166.544 470.088C166.528 470.536 166.528 470.984 166.544 471.432C166.576 472.2 166.712 472.92 166.952 473.592C167.192 474.264 167.584 474.808 168.128 475.224C168.688 475.64 169.432 475.848 170.36 475.848ZM183.778 477.24C182.69 477.24 181.786 477.008 181.066 476.544C180.362 476.064 179.834 475.416 179.482 474.6C179.146 473.784 178.978 472.872 178.978 471.864V465.048C178.978 464.888 179.026 464.76 179.122 464.664C179.218 464.568 179.346 464.52 179.506 464.52H179.914C180.074 464.52 180.202 464.568 180.298 464.664C180.394 464.76 180.442 464.888 180.442 465.048V471.744C180.442 474.48 181.634 475.848 184.018 475.848C185.154 475.848 186.066 475.488 186.754 474.768C187.442 474.032 187.786 473.024 187.786 471.744V465.048C187.786 464.888 187.834 464.76 187.93 464.664C188.026 464.568 188.154 464.52 188.314 464.52H188.722C188.882 464.52 189.01 464.568 189.106 464.664C189.202 464.76 189.25 464.888 189.25 465.048V476.472C189.25 476.632 189.202 476.76 189.106 476.856C189.01 476.952 188.882 477 188.722 477H188.314C188.154 477 188.026 476.952 187.93 476.856C187.834 476.76 187.786 476.632 187.786 476.472V475.344C187.354 475.904 186.834 476.36 186.226 476.712C185.634 477.064 184.818 477.24 183.778 477.24ZM197.337 477.24C196.217 477.24 195.265 477.024 194.481 476.592C193.697 476.144 193.097 475.504 192.681 474.672C192.281 473.84 192.065 472.856 192.033 471.72C192.017 471.48 192.009 471.16 192.009 470.76C192.009 470.36 192.017 470.04 192.033 469.8C192.065 468.648 192.281 467.664 192.681 466.848C193.097 466.016 193.697 465.384 194.481 464.952C195.265 464.504 196.217 464.28 197.337 464.28C198.185 464.28 198.913 464.4 199.521 464.64C200.145 464.864 200.657 465.168 201.057 465.552C201.457 465.92 201.761 466.328 201.969 466.776C202.177 467.224 202.289 467.664 202.305 468.096C202.321 468.256 202.273 468.384 202.161 468.48C202.049 468.576 201.921 468.624 201.777 468.624H201.441C201.281 468.624 201.161 468.592 201.081 468.528C201.017 468.448 200.945 468.312 200.865 468.12C200.529 467.208 200.065 466.576 199.473 466.224C198.897 465.856 198.185 465.672 197.337 465.672C196.249 465.672 195.345 466.008 194.625 466.68C193.921 467.336 193.545 468.416 193.497 469.92C193.465 470.48 193.465 471.04 193.497 471.6C193.545 473.104 193.921 474.192 194.625 474.864C195.345 475.52 196.249 475.848 197.337 475.848C198.185 475.848 198.897 475.672 199.473 475.32C200.065 474.952 200.529 474.312 200.865 473.4C200.945 473.208 201.017 473.08 201.081 473.016C201.161 472.936 201.281 472.896 201.441 472.896H201.777C201.921 472.896 202.049 472.944 202.161 473.04C202.273 473.136 202.321 473.264 202.305 473.424C202.289 473.776 202.217 474.128 202.089 474.48C201.961 474.832 201.761 475.176 201.489 475.512C201.233 475.848 200.913 476.144 200.529 476.4C200.145 476.656 199.681 476.856 199.137 477C198.609 477.16 198.009 477.24 197.337 477.24ZM209.58 477.24C208.028 477.24 206.796 476.736 205.884 475.728C204.972 474.704 204.452 473.368 204.324 471.72C204.308 471.48 204.3 471.16 204.3 470.76C204.3 470.36 204.308 470.04 204.324 469.8C204.404 468.712 204.66 467.752 205.092 466.92C205.524 466.088 206.116 465.44 206.868 464.976C207.636 464.512 208.54 464.28 209.58 464.28C210.7 464.28 211.652 464.528 212.436 465.024C213.22 465.52 213.82 466.232 214.236 467.16C214.668 468.088 214.884 469.192 214.884 470.472V470.832C214.884 470.992 214.828 471.12 214.716 471.216C214.62 471.312 214.492 471.36 214.332 471.36H205.788C205.788 471.36 205.788 471.392 205.788 471.456C205.788 471.52 205.788 471.568 205.788 471.6C205.82 472.32 205.988 473.008 206.292 473.664C206.596 474.304 207.028 474.832 207.588 475.248C208.148 475.648 208.812 475.848 209.58 475.848C210.268 475.848 210.836 475.744 211.284 475.536C211.748 475.328 212.116 475.104 212.388 474.864C212.66 474.608 212.836 474.416 212.916 474.288C213.06 474.08 213.172 473.96 213.252 473.928C213.332 473.88 213.46 473.856 213.636 473.856H214.02C214.164 473.856 214.284 473.904 214.38 474C214.492 474.08 214.54 474.192 214.524 474.336C214.508 474.56 214.38 474.84 214.14 475.176C213.916 475.496 213.588 475.816 213.156 476.136C212.74 476.456 212.228 476.72 211.62 476.928C211.012 477.136 210.332 477.24 209.58 477.24ZM205.788 470.016H213.42V469.92C213.42 469.12 213.268 468.4 212.964 467.76C212.66 467.12 212.22 466.616 211.644 466.248C211.068 465.864 210.38 465.672 209.58 465.672C208.78 465.672 208.092 465.864 207.516 466.248C206.956 466.616 206.524 467.12 206.22 467.76C205.932 468.4 205.788 469.12 205.788 469.92V470.016ZM227.933 477.24C226.781 477.24 225.813 477 225.029 476.52C224.261 476.04 223.669 475.384 223.253 474.552C222.853 473.72 222.637 472.792 222.605 471.768C222.589 471.528 222.581 471.192 222.581 470.76C222.581 470.328 222.589 469.992 222.605 469.752C222.637 468.712 222.853 467.784 223.253 466.968C223.669 466.136 224.261 465.48 225.029 465C225.813 464.52 226.781 464.28 227.933 464.28C229.085 464.28 230.045 464.52 230.813 465C231.597 465.48 232.189 466.136 232.589 466.968C233.005 467.784 233.229 468.712 233.261 469.752C233.277 469.992 233.285 470.328 233.285 470.76C233.285 471.192 233.277 471.528 233.261 471.768C233.229 472.792 233.005 473.72 232.589 474.552C232.189 475.384 231.597 476.04 230.813 476.52C230.045 477 229.085 477.24 227.933 477.24ZM227.933 475.848C229.053 475.848 229.965 475.488 230.669 474.768C231.373 474.048 231.749 473.008 231.797 471.648C231.813 471.408 231.821 471.112 231.821 470.76C231.821 470.408 231.813 470.112 231.797 469.872C231.749 468.496 231.373 467.456 230.669 466.752C229.965 466.032 229.053 465.672 227.933 465.672C226.813 465.672 225.901 466.032 225.197 466.752C224.493 467.456 224.117 468.496 224.069 469.872C224.053 470.112 224.045 470.408 224.045 470.76C224.045 471.112 224.053 471.408 224.069 471.648C224.117 473.008 224.493 474.048 225.197 474.768C225.901 475.488 226.813 475.848 227.933 475.848ZM240.096 477C239.264 477 238.608 476.824 238.128 476.472C237.648 476.12 237.312 475.64 237.12 475.032C236.928 474.424 236.832 473.744 236.832 472.992V465.912H234.96C234.8 465.912 234.672 465.864 234.576 465.768C234.48 465.672 234.432 465.544 234.432 465.384V465.048C234.432 464.888 234.48 464.76 234.576 464.664C234.672 464.568 234.8 464.52 234.96 464.52H236.832V460.488C236.832 460.328 236.88 460.2 236.976 460.104C237.072 460.008 237.2 459.96 237.36 459.96H237.768C237.928 459.96 238.056 460.008 238.152 460.104C238.248 460.2 238.296 460.328 238.296 460.488V464.52H241.272C241.432 464.52 241.56 464.568 241.656 464.664C241.752 464.76 241.8 464.888 241.8 465.048V465.384C241.8 465.544 241.752 465.672 241.656 465.768C241.56 465.864 241.432 465.912 241.272 465.912H238.296V472.896C238.296 473.744 238.432 474.408 238.704 474.888C238.992 475.368 239.496 475.608 240.216 475.608H241.512C241.672 475.608 241.8 475.656 241.896 475.752C241.992 475.848 242.04 475.976 242.04 476.136V476.472C242.04 476.632 241.992 476.76 241.896 476.856C241.8 476.952 241.672 477 241.512 477H240.096ZM244.521 477C244.361 477 244.233 476.952 244.137 476.856C244.041 476.76 243.993 476.632 243.993 476.472V465.072C243.993 464.912 244.041 464.784 244.137 464.688C244.233 464.576 244.361 464.52 244.521 464.52H244.905C245.065 464.52 245.193 464.576 245.289 464.688C245.401 464.784 245.457 464.912 245.457 465.072V466.176C245.745 465.616 246.161 465.2 246.705 464.928C247.249 464.656 247.921 464.52 248.721 464.52H249.609C249.769 464.52 249.897 464.568 249.993 464.664C250.089 464.76 250.137 464.888 250.137 465.048V465.384C250.137 465.544 250.089 465.672 249.993 465.768C249.897 465.864 249.769 465.912 249.609 465.912H248.577C247.617 465.912 246.857 466.192 246.297 466.752C245.737 467.312 245.457 468.072 245.457 469.032V476.472C245.457 476.632 245.401 476.76 245.289 476.856C245.193 476.952 245.065 477 244.905 477H244.521ZM254.981 477.24C254.213 477.24 253.501 477.08 252.845 476.76C252.205 476.44 251.685 476.016 251.285 475.488C250.885 474.944 250.685 474.336 250.685 473.664C250.685 472.576 251.125 471.704 252.005 471.048C252.885 470.392 254.029 469.968 255.437 469.776L259.229 469.248V468.408C259.229 467.56 258.965 466.896 258.437 466.416C257.925 465.92 257.101 465.672 255.965 465.672C255.133 465.672 254.461 465.84 253.949 466.176C253.437 466.496 253.085 466.92 252.893 467.448C252.813 467.688 252.661 467.808 252.437 467.808H252.053C251.861 467.808 251.725 467.76 251.645 467.664C251.565 467.552 251.525 467.424 251.525 467.28C251.525 467.056 251.605 466.776 251.765 466.44C251.941 466.104 252.205 465.776 252.557 465.456C252.909 465.12 253.365 464.84 253.925 464.616C254.485 464.392 255.165 464.28 255.965 464.28C256.909 464.28 257.685 464.408 258.293 464.664C258.917 464.92 259.397 465.256 259.733 465.672C260.085 466.072 260.333 466.52 260.477 467.016C260.621 467.512 260.693 468 260.693 468.48V476.472C260.693 476.632 260.645 476.76 260.549 476.856C260.453 476.952 260.325 477 260.165 477H259.757C259.597 477 259.469 476.952 259.373 476.856C259.277 476.76 259.229 476.632 259.229 476.472V475.344C259.037 475.632 258.765 475.92 258.413 476.208C258.061 476.496 257.605 476.744 257.045 476.952C256.501 477.144 255.813 477.24 254.981 477.24ZM255.221 475.848C255.957 475.848 256.629 475.688 257.237 475.368C257.845 475.048 258.325 474.56 258.677 473.904C259.045 473.232 259.229 472.392 259.229 471.384V470.568L256.133 471C254.821 471.176 253.829 471.48 253.157 471.912C252.485 472.344 252.149 472.888 252.149 473.544C252.149 474.072 252.301 474.504 252.605 474.84C252.909 475.176 253.293 475.432 253.757 475.608C254.237 475.768 254.725 475.848 255.221 475.848ZM270.171 477C270.011 477 269.883 476.952 269.787 476.856C269.691 476.76 269.643 476.632 269.643 476.472V460.488C269.643 460.328 269.691 460.2 269.787 460.104C269.883 460.008 270.011 459.96 270.171 459.96H270.579C270.739 459.96 270.867 460.008 270.963 460.104C271.059 460.2 271.107 460.328 271.107 460.488V476.472C271.107 476.632 271.059 476.76 270.963 476.856C270.867 476.952 270.739 477 270.579 477H270.171ZM279.234 477.24C278.082 477.24 277.114 477 276.33 476.52C275.562 476.04 274.97 475.384 274.554 474.552C274.154 473.72 273.938 472.792 273.906 471.768C273.89 471.528 273.882 471.192 273.882 470.76C273.882 470.328 273.89 469.992 273.906 469.752C273.938 468.712 274.154 467.784 274.554 466.968C274.97 466.136 275.562 465.48 276.33 465C277.114 464.52 278.082 464.28 279.234 464.28C280.386 464.28 281.346 464.52 282.114 465C282.898 465.48 283.49 466.136 283.89 466.968C284.306 467.784 284.53 468.712 284.562 469.752C284.578 469.992 284.586 470.328 284.586 470.76C284.586 471.192 284.578 471.528 284.562 471.768C284.53 472.792 284.306 473.72 283.89 474.552C283.49 475.384 282.898 476.04 282.114 476.52C281.346 477 280.386 477.24 279.234 477.24ZM279.234 475.848C280.354 475.848 281.266 475.488 281.97 474.768C282.674 474.048 283.05 473.008 283.098 471.648C283.114 471.408 283.122 471.112 283.122 470.76C283.122 470.408 283.114 470.112 283.098 469.872C283.05 468.496 282.674 467.456 281.97 466.752C281.266 466.032 280.354 465.672 279.234 465.672C278.114 465.672 277.202 466.032 276.498 466.752C275.794 467.456 275.418 468.496 275.37 469.872C275.354 470.112 275.346 470.408 275.346 470.76C275.346 471.112 275.354 471.408 275.37 471.648C275.418 473.008 275.794 474.048 276.498 474.768C277.202 475.488 278.114 475.848 279.234 475.848ZM292.065 477.24C290.945 477.24 289.993 477.024 289.209 476.592C288.425 476.144 287.825 475.504 287.409 474.672C287.009 473.84 286.793 472.856 286.761 471.72C286.745 471.48 286.737 471.16 286.737 470.76C286.737 470.36 286.745 470.04 286.761 469.8C286.793 468.648 287.009 467.664 287.409 466.848C287.825 466.016 288.425 465.384 289.209 464.952C289.993 464.504 290.945 464.28 292.065 464.28C292.913 464.28 293.641 464.4 294.249 464.64C294.873 464.864 295.385 465.168 295.785 465.552C296.185 465.92 296.489 466.328 296.697 466.776C296.905 467.224 297.017 467.664 297.033 468.096C297.049 468.256 297.001 468.384 296.889 468.48C296.777 468.576 296.649 468.624 296.505 468.624H296.169C296.009 468.624 295.889 468.592 295.809 468.528C295.745 468.448 295.673 468.312 295.593 468.12C295.257 467.208 294.793 466.576 294.201 466.224C293.625 465.856 292.913 465.672 292.065 465.672C290.977 465.672 290.073 466.008 289.353 466.68C288.649 467.336 288.273 468.416 288.225 469.92C288.193 470.48 288.193 471.04 288.225 471.6C288.273 473.104 288.649 474.192 289.353 474.864C290.073 475.52 290.977 475.848 292.065 475.848C292.913 475.848 293.625 475.672 294.201 475.32C294.793 474.952 295.257 474.312 295.593 473.4C295.673 473.208 295.745 473.08 295.809 473.016C295.889 472.936 296.009 472.896 296.169 472.896H296.505C296.649 472.896 296.777 472.944 296.889 473.04C297.001 473.136 297.049 473.264 297.033 473.424C297.017 473.776 296.945 474.128 296.817 474.48C296.689 474.832 296.489 475.176 296.217 475.512C295.961 475.848 295.641 476.144 295.257 476.4C294.873 476.656 294.409 476.856 293.865 477C293.337 477.16 292.737 477.24 292.065 477.24ZM303.036 477.24C302.268 477.24 301.556 477.08 300.9 476.76C300.26 476.44 299.74 476.016 299.34 475.488C298.94 474.944 298.74 474.336 298.74 473.664C298.74 472.576 299.18 471.704 300.06 471.048C300.94 470.392 302.084 469.968 303.492 469.776L307.284 469.248V468.408C307.284 467.56 307.02 466.896 306.492 466.416C305.98 465.92 305.156 465.672 304.02 465.672C303.188 465.672 302.516 465.84 302.004 466.176C301.492 466.496 301.14 466.92 300.948 467.448C300.868 467.688 300.716 467.808 300.492 467.808H300.108C299.916 467.808 299.78 467.76 299.7 467.664C299.62 467.552 299.58 467.424 299.58 467.28C299.58 467.056 299.66 466.776 299.82 466.44C299.996 466.104 300.26 465.776 300.612 465.456C300.964 465.12 301.42 464.84 301.98 464.616C302.54 464.392 303.22 464.28 304.02 464.28C304.964 464.28 305.74 464.408 306.348 464.664C306.972 464.92 307.452 465.256 307.788 465.672C308.14 466.072 308.388 466.52 308.532 467.016C308.676 467.512 308.748 468 308.748 468.48V476.472C308.748 476.632 308.7 476.76 308.604 476.856C308.508 476.952 308.38 477 308.22 477H307.812C307.652 477 307.524 476.952 307.428 476.856C307.332 476.76 307.284 476.632 307.284 476.472V475.344C307.092 475.632 306.82 475.92 306.468 476.208C306.116 476.496 305.66 476.744 305.1 476.952C304.556 477.144 303.868 477.24 303.036 477.24ZM303.276 475.848C304.012 475.848 304.684 475.688 305.292 475.368C305.9 475.048 306.38 474.56 306.732 473.904C307.1 473.232 307.284 472.392 307.284 471.384V470.568L304.188 471C302.876 471.176 301.884 471.48 301.212 471.912C300.54 472.344 300.204 472.888 300.204 473.544C300.204 474.072 300.356 474.504 300.66 474.84C300.964 475.176 301.348 475.432 301.812 475.608C302.292 475.768 302.78 475.848 303.276 475.848ZM312.567 477C312.407 477 312.279 476.952 312.183 476.856C312.087 476.76 312.039 476.632 312.039 476.472V460.488C312.039 460.328 312.087 460.2 312.183 460.104C312.279 460.008 312.407 459.96 312.567 459.96H312.975C313.135 459.96 313.263 460.008 313.359 460.104C313.455 460.2 313.503 460.328 313.503 460.488V476.472C313.503 476.632 313.455 476.76 313.359 476.856C313.263 476.952 313.135 477 312.975 477H312.567ZM317.406 477C317.246 477 317.118 476.952 317.022 476.856C316.926 476.76 316.878 476.632 316.878 476.472V465.048C316.878 464.888 316.926 464.76 317.022 464.664C317.118 464.568 317.246 464.52 317.406 464.52H317.814C317.974 464.52 318.102 464.568 318.198 464.664C318.294 464.76 318.342 464.888 318.342 465.048V476.472C318.342 476.632 318.294 476.76 318.198 476.856C318.102 476.952 317.974 477 317.814 477H317.406ZM317.142 461.952C316.982 461.952 316.854 461.904 316.758 461.808C316.662 461.712 316.614 461.584 316.614 461.424V460.512C316.614 460.352 316.662 460.224 316.758 460.128C316.854 460.016 316.982 459.96 317.142 459.96H318.054C318.214 459.96 318.342 460.016 318.438 460.128C318.55 460.224 318.606 460.352 318.606 460.512V461.424C318.606 461.584 318.55 461.712 318.438 461.808C318.342 461.904 318.214 461.952 318.054 461.952H317.142ZM326.206 477.24C325.278 477.24 324.486 477.072 323.83 476.736C323.19 476.4 322.67 475.952 322.27 475.392C321.87 474.832 321.574 474.208 321.382 473.52C321.206 472.832 321.102 472.136 321.07 471.432C321.054 471.192 321.046 470.968 321.046 470.76C321.046 470.552 321.054 470.328 321.07 470.088C321.102 469.384 321.206 468.688 321.382 468C321.574 467.312 321.87 466.688 322.27 466.128C322.67 465.568 323.19 465.12 323.83 464.784C324.486 464.448 325.278 464.28 326.206 464.28C327.198 464.28 328.014 464.464 328.654 464.832C329.31 465.2 329.838 465.648 330.238 466.176V460.488C330.238 460.328 330.286 460.2 330.382 460.104C330.478 460.008 330.606 459.96 330.766 459.96H331.174C331.334 459.96 331.462 460.008 331.558 460.104C331.654 460.2 331.702 460.328 331.702 460.488V476.472C331.702 476.632 331.654 476.76 331.558 476.856C331.462 476.952 331.334 477 331.174 477H330.766C330.606 477 330.478 476.952 330.382 476.856C330.286 476.76 330.238 476.632 330.238 476.472V475.344C329.838 475.888 329.31 476.344 328.654 476.712C328.014 477.064 327.198 477.24 326.206 477.24ZM326.35 475.848C327.262 475.848 327.998 475.632 328.558 475.2C329.118 474.768 329.534 474.232 329.806 473.592C330.078 472.936 330.222 472.28 330.238 471.624C330.254 471.384 330.262 471.072 330.262 470.688C330.262 470.304 330.254 469.992 330.238 469.752C330.222 469.112 330.07 468.48 329.782 467.856C329.51 467.232 329.094 466.712 328.534 466.296C327.974 465.88 327.246 465.672 326.35 465.672C325.422 465.672 324.678 465.88 324.118 466.296C323.574 466.712 323.182 467.256 322.942 467.928C322.702 468.6 322.566 469.32 322.534 470.088C322.518 470.536 322.518 470.984 322.534 471.432C322.566 472.2 322.702 472.92 322.942 473.592C323.182 474.264 323.574 474.808 324.118 475.224C324.678 475.64 325.422 475.848 326.35 475.848ZM338.448 477.24C337.68 477.24 336.968 477.08 336.312 476.76C335.672 476.44 335.152 476.016 334.752 475.488C334.352 474.944 334.152 474.336 334.152 473.664C334.152 472.576 334.592 471.704 335.472 471.048C336.352 470.392 337.496 469.968 338.904 469.776L342.696 469.248V468.408C342.696 467.56 342.432 466.896 341.904 466.416C341.392 465.92 340.568 465.672 339.432 465.672C338.6 465.672 337.928 465.84 337.416 466.176C336.904 466.496 336.552 466.92 336.36 467.448C336.28 467.688 336.128 467.808 335.904 467.808H335.52C335.328 467.808 335.192 467.76 335.112 467.664C335.032 467.552 334.992 467.424 334.992 467.28C334.992 467.056 335.072 466.776 335.232 466.44C335.408 466.104 335.672 465.776 336.024 465.456C336.376 465.12 336.832 464.84 337.392 464.616C337.952 464.392 338.632 464.28 339.432 464.28C340.376 464.28 341.152 464.408 341.76 464.664C342.384 464.92 342.864 465.256 343.2 465.672C343.552 466.072 343.8 466.52 343.944 467.016C344.088 467.512 344.16 468 344.16 468.48V476.472C344.16 476.632 344.112 476.76 344.016 476.856C343.92 476.952 343.792 477 343.632 477H343.224C343.064 477 342.936 476.952 342.84 476.856C342.744 476.76 342.696 476.632 342.696 476.472V475.344C342.504 475.632 342.232 475.92 341.88 476.208C341.528 476.496 341.072 476.744 340.512 476.952C339.968 477.144 339.28 477.24 338.448 477.24ZM338.688 475.848C339.424 475.848 340.096 475.688 340.704 475.368C341.312 475.048 341.792 474.56 342.144 473.904C342.512 473.232 342.696 472.392 342.696 471.384V470.568L339.6 471C338.288 471.176 337.296 471.48 336.624 471.912C335.952 472.344 335.616 472.888 335.616 473.544C335.616 474.072 335.768 474.504 336.072 474.84C336.376 475.176 336.76 475.432 337.224 475.608C337.704 475.768 338.192 475.848 338.688 475.848ZM351.939 477.24C351.011 477.24 350.219 477.072 349.563 476.736C348.923 476.4 348.403 475.952 348.003 475.392C347.603 474.832 347.307 474.208 347.115 473.52C346.939 472.832 346.835 472.136 346.803 471.432C346.787 471.192 346.779 470.968 346.779 470.76C346.779 470.552 346.787 470.328 346.803 470.088C346.835 469.384 346.939 468.688 347.115 468C347.307 467.312 347.603 466.688 348.003 466.128C348.403 465.568 348.923 465.12 349.563 464.784C350.219 464.448 351.011 464.28 351.939 464.28C352.931 464.28 353.747 464.464 354.387 464.832C355.043 465.2 355.571 465.648 355.971 466.176V460.488C355.971 460.328 356.019 460.2 356.115 460.104C356.211 460.008 356.339 459.96 356.499 459.96H356.907C357.067 459.96 357.195 460.008 357.291 460.104C357.387 460.2 357.435 460.328 357.435 460.488V476.472C357.435 476.632 357.387 476.76 357.291 476.856C357.195 476.952 357.067 477 356.907 477H356.499C356.339 477 356.211 476.952 356.115 476.856C356.019 476.76 355.971 476.632 355.971 476.472V475.344C355.571 475.888 355.043 476.344 354.387 476.712C353.747 477.064 352.931 477.24 351.939 477.24ZM352.083 475.848C352.995 475.848 353.731 475.632 354.291 475.2C354.851 474.768 355.267 474.232 355.539 473.592C355.811 472.936 355.955 472.28 355.971 471.624C355.987 471.384 355.995 471.072 355.995 470.688C355.995 470.304 355.987 469.992 355.971 469.752C355.955 469.112 355.803 468.48 355.515 467.856C355.243 467.232 354.827 466.712 354.267 466.296C353.707 465.88 352.979 465.672 352.083 465.672C351.155 465.672 350.411 465.88 349.851 466.296C349.307 466.712 348.915 467.256 348.675 467.928C348.435 468.6 348.299 469.32 348.267 470.088C348.251 470.536 348.251 470.984 348.267 471.432C348.299 472.2 348.435 472.92 348.675 473.592C348.915 474.264 349.307 474.808 349.851 475.224C350.411 475.64 351.155 475.848 352.083 475.848ZM360.005 480.816C359.861 480.816 359.733 480.76 359.621 480.648C359.525 480.552 359.477 480.432 359.477 480.288V479.952C359.477 479.808 359.525 479.68 359.621 479.568C359.717 479.472 359.821 479.424 359.933 479.424C360.605 479.424 361.173 479.264 361.637 478.944C362.101 478.624 362.477 478.088 362.765 477.336C363.053 476.6 363.261 475.6 363.389 474.336C363.517 473.072 363.581 471.488 363.581 469.584C363.581 467.68 363.517 466.096 363.389 464.832C363.261 463.568 363.053 462.568 362.765 461.832C362.477 461.08 362.101 460.552 361.637 460.248C361.173 459.928 360.605 459.768 359.933 459.768C359.821 459.768 359.717 459.72 359.621 459.624C359.525 459.512 359.477 459.384 359.477 459.24V458.904C359.477 458.76 359.525 458.64 359.621 458.544C359.733 458.432 359.861 458.376 360.005 458.376C361.013 458.376 361.845 458.6 362.501 459.048C363.157 459.48 363.661 460.152 364.013 461.064C364.381 461.976 364.637 463.144 364.781 464.568C364.925 465.976 364.997 467.648 364.997 469.584C364.997 471.52 364.925 473.2 364.781 474.624C364.637 476.032 364.381 477.192 364.013 478.104C363.661 479.016 363.157 479.696 362.501 480.144C361.845 480.592 361.013 480.816 360.005 480.816Z" fill="white"/>
<defs>
<clipPath id="clip0_72_216">
<rect width="227" height="166" fill="white" transform="translate(124.5)"/>
</clipPath>
</defs>
</svg>
