<svg width="144" height="143" viewBox="0 0 56 56" fill="#E59613" xmlns="http://www.w3.org/2000/svg">
<path d="M55.5287 23.9917C55.5287 19.7993 52.1232 16.3885 47.9373 16.3885C47.2673 16.3885 46.613 16.4753 45.9744 16.649C44.2323 13.9962 41.2525 12.3381 37.9574 12.3381C34.5598 12.3381 31.4933 14.1699 29.7827 16.9411C27.6779 15.7805 25.2736 15.1252 22.7352 15.1252C16.279 15.1252 10.5953 19.4914 8.77435 25.555C4.13123 26.1314 0.528687 30.1106 0.528687 34.911C0.528687 40.1062 4.754 44.3381 9.94104 44.3381C11.9985 44.3381 13.9693 43.667 15.5853 42.4511C17.761 43.6907 20.1969 44.3381 22.7352 44.3381C26.0461 44.3381 29.223 43.2091 31.785 41.18C33.8424 43.1933 36.5936 44.3381 39.5655 44.3381C45.7222 44.3381 50.7358 39.3167 50.7358 33.1504C50.7358 32.4556 50.6649 31.7845 50.5466 31.1213C53.4397 30.0633 55.5287 27.2683 55.5287 23.9917ZM39.5577 41.9695C36.3493 41.9695 33.5508 40.2483 32.0136 37.6823C29.7748 40.3036 26.4482 41.9695 22.7352 41.9695C19.9525 41.9695 17.3905 41.0221 15.333 39.4509C14.0402 40.9905 12.1089 41.9695 9.94104 41.9695C6.04682 41.9695 2.8936 38.8114 2.8936 34.911C2.8936 31.0107 6.04682 27.8526 9.94104 27.8526C10.1854 27.8526 10.4298 27.8684 10.6663 27.892C11.5571 22.01 16.6101 17.4938 22.7352 17.4938C28.1903 17.4938 32.8098 21.0783 34.3785 26.0208C35.8368 24.955 37.6184 24.3233 39.5577 24.3233C44.4215 24.3233 48.363 28.271 48.363 33.1425C48.363 38.0218 44.4215 41.9695 39.5577 41.9695ZM49.8687 28.8553C48.1817 24.8128 44.1929 21.9626 39.5577 21.9626C38.1624 21.9626 36.8065 22.2232 35.5294 22.7206C34.5756 20.9599 33.2827 19.4519 31.7456 18.2439C33.0068 16.1279 35.3087 14.7146 37.9495 14.7146C41.1894 14.7146 43.9249 16.8385 44.8551 19.7756C45.7143 19.144 46.7785 18.765 47.9294 18.765C50.8146 18.765 53.1559 21.1099 53.1559 23.9996C53.1638 26.2024 51.8 28.0815 49.8687 28.8553Z" fill="#E59613"/>
</svg>
