<svg width="57" height="58" viewBox="0 0 57 58" fill="none" xmlns="http://www.w3.org/2000/svg">
<path d="M27.9499 14.6616C35.8249 14.6616 42.2421 21.1114 42.2421 29.0534C42.2421 36.9834 35.8369 43.4453 27.9499 43.4453C20.0748 43.4453 13.6577 36.9954 13.6577 29.0534C13.6577 21.1114 20.0748 14.6616 27.9499 14.6616ZM27.9499 11.0516C18.0792 11.0516 10.0727 19.1139 10.0727 29.0534C10.0727 38.993 18.0792 47.0553 27.9499 47.0553C37.8206 47.0553 45.8271 38.993 45.8271 29.0534C45.8271 19.1139 37.8206 11.0516 27.9499 11.0516Z" fill="white"/>
<path d="M29.7424 0.955597H26.1574V7.57393H29.7424V0.955597Z" fill="white"/>
<path d="M9.49021 7.90578L6.95526 10.4584L11.6027 15.1382L14.1376 12.5856L9.49021 7.90578Z" fill="white"/>
<path d="M6.63109 27.2484H0.0585938V30.8584H6.63109V27.2484Z" fill="white"/>
<path d="M11.6054 42.9573L6.95801 47.6371L9.49296 50.1898L14.1404 45.51L11.6054 42.9573Z" fill="white"/>
<path d="M29.7424 50.5209H26.1574V57.1392H29.7424V50.5209Z" fill="white"/>
<path d="M44.3018 42.9545L41.7668 45.5072L46.4143 50.187L48.9492 47.6344L44.3018 42.9545Z" fill="white"/>
<path d="M55.8531 27.2484H49.2806V30.8584H55.8531V27.2484Z" fill="white"/>
<path d="M46.4115 7.90297L41.7641 12.5828L44.299 15.1354L48.9464 10.4556L46.4115 7.90297Z" fill="white"/>
</svg>
