<svg width="56" height="56" viewBox="0 0 56 56" fill="none" xmlns="http://www.w3.org/2000/svg">
<path d="M38.5 52.5H29.75C26.5022 52.4963 23.3886 51.2045 21.092 48.908C18.7955 46.6114 17.5037 43.4978 17.5 40.25C17.5441 37.1488 18.8181 34.1921 21.042 32.0302C19.9005 31.6774 18.7123 31.4986 17.5175 31.5C8.82525 31.5823 7 42.9643 7 52.5H3.5C3.5 32.3575 11.1037 28.0595 17.4825 28C20.2119 28.0357 22.8958 28.7049 25.3225 29.9548C25.5933 30.0992 25.8213 30.3122 25.9838 30.5726C26.1462 30.833 26.2373 31.1315 26.2479 31.4382C26.2586 31.7449 26.1884 32.049 26.0444 32.32C25.9004 32.5911 25.6876 32.8194 25.4275 32.9823C23.7483 33.9017 22.427 35.3591 21.676 37.1201C20.925 38.8811 20.7879 40.8435 21.2866 42.6918C21.7854 44.5401 22.8912 46.1671 24.4261 47.3112C25.9611 48.4553 27.8362 49.0501 29.75 49H38.5V52.5ZM29.75 14H33.25V28H29.75V14Z" fill="#E59613"/>
<path d="M49 9.4745L46.5255 7L42.567 10.9585C39.9114 8.77698 36.6696 7.4301 33.25 7.0875V3.5H29.75V7.0875C25.4354 7.52625 21.4367 9.54946 18.5274 12.7658C15.6182 15.9822 14.005 20.1631 14 24.5H17.5C17.5 21.7311 18.3211 19.0243 19.8594 16.722C21.3978 14.4197 23.5843 12.6253 26.1424 11.5657C28.7006 10.5061 31.5155 10.2288 34.2313 10.769C36.947 11.3092 39.4416 12.6426 41.3995 14.6005C43.3574 16.5584 44.6908 19.053 45.231 21.7687C45.7712 24.4845 45.4939 27.2994 44.4343 29.8576C43.3747 32.4157 41.5803 34.6022 39.278 36.1406C36.9757 37.6789 34.2689 38.5 31.5 38.5V42C34.812 42.0021 38.0564 41.0637 40.8559 39.2939C43.6554 37.5241 45.8947 34.9957 47.3134 32.0029C48.732 29.0102 49.2716 25.6761 48.8694 22.3886C48.4672 19.1012 47.1398 15.9955 45.0415 13.433L49 9.4745Z" fill="#E59613"/>
</svg>
