<svg width="57" height="57" viewBox="0 0 57 57" fill="none" xmlns="http://www.w3.org/2000/svg">
<g clip-path="url(#clip0_64_640)">
<path d="M25.7687 15.5946C31.8532 15.5946 37.0056 19.5211 38.7554 24.9351C40.382 23.7676 42.3691 23.0757 44.5321 23.0757C49.9571 23.0757 54.3534 27.4 54.3534 32.7362C54.3534 38.0724 49.9571 42.3968 44.5321 42.3968C40.9535 42.3968 37.8322 40.5113 36.1176 37.7005C33.6205 40.5719 29.91 42.3968 25.7687 42.3968C22.6649 42.3968 19.8073 41.3589 17.5125 39.6378C16.0705 41.3243 13.9163 42.3968 11.4984 42.3968C7.15482 42.3968 3.63778 38.9373 3.63778 34.6649C3.63778 30.3924 7.15482 26.933 11.4984 26.933C11.7709 26.933 12.0435 26.9503 12.3073 26.9762C13.3008 20.533 18.9369 15.5946 25.7687 15.5946ZM25.7687 13C18.5676 13 12.2281 17.7827 10.197 24.4249C5.01821 25.0562 1 29.4151 1 34.6735C1 40.3643 5.71283 45 11.4984 45C13.7932 45 15.9914 44.2649 17.7938 42.933C20.2206 44.2908 22.9375 45 25.7687 45C29.4616 45 33.005 43.7632 35.8626 41.5405C38.1575 43.7459 41.2261 45 44.5409 45C51.4079 45 57 39.4995 57 32.7449C57 25.9903 51.4079 20.4897 44.5409 20.4897C42.9846 20.4897 41.4723 20.7751 40.0479 21.32C37.2343 16.2346 31.818 13 25.7687 13Z" fill="white"/>
</g>
<defs>
<clipPath id="clip0_64_640">
<rect width="56" height="56" fill="white" transform="translate(0.998657 0.791748)"/>
</clipPath>
</defs>
</svg>
