<svg width="144" height="143" viewBox="0 0 56 56" fill="#E59613" xmlns="http://www.w3.org/2000/svg">
<path d="M24.7687 9.72432C30.8532 9.72432 36.0056 13.8471 37.7554 19.5319C39.382 18.3059 41.3691 17.5795 43.5321 17.5795C48.9571 17.5795 53.3534 22.12 53.3534 27.723C53.3534 33.326 48.9571 37.8666 43.5321 37.8666C39.9535 37.8666 36.8321 35.8869 35.1176 32.9356C32.6205 35.9505 28.91 37.8666 24.7687 37.8666C21.6649 37.8666 18.8074 36.7769 16.5125 34.9697C15.0705 36.7405 12.9163 37.8666 10.4983 37.8666C6.15479 37.8666 2.63778 34.2342 2.63778 29.7481C2.63778 25.2621 6.15479 21.6296 10.4983 21.6296C10.7709 21.6296 11.0435 21.6478 11.3073 21.675C12.3008 14.9187 17.9369 9.72432 24.7687 9.72432ZM24.7687 7C17.5676 7 11.2281 12.0218 9.19704 18.9961C4.01821 19.659 0 24.2359 0 29.7572C0 35.7325 4.71281 40.6 10.4983 40.6C12.7932 40.6 14.9913 39.8281 16.7938 38.4296C19.2206 39.8554 21.9375 40.6 24.7687 40.6C28.4616 40.6 32.005 39.3014 34.8626 36.9676C37.1575 39.2832 40.2261 40.6 43.5409 40.6C50.4079 40.6 56 34.8244 56 27.7321C56 20.6398 50.4079 14.8642 43.5409 14.8642C41.9846 14.8642 40.4723 15.1639 39.0479 15.736C36.2255 10.4054 30.818 7 24.7687 7Z" fill="#E59613"/>
<path d="M17.7522 44.178C17.1895 43.2517 16.4421 42.3981 15.642 41.6807C14.8331 42.389 14.0945 43.2517 13.5318 44.178C12.8548 45.2949 12.5558 46.8932 13.3735 48.0283C13.9011 48.7639 14.7979 49 15.642 49C16.4949 49 17.383 48.7548 17.9105 48.0283C18.7282 46.8932 18.4293 45.2949 17.7522 44.178Z" fill="#E59613"/>
<path d="M28.5671 44.178C28.0044 43.2517 27.257 42.3981 26.4569 41.6807C25.648 42.389 24.9094 43.2517 24.3467 44.178C23.6696 45.2949 23.3707 46.8932 24.1884 48.0283C24.716 48.7639 25.6128 49 26.4569 49C27.3098 49 28.1978 48.7548 28.7254 48.0283C29.5431 46.8932 29.2354 45.2949 28.5671 44.178Z" fill="#E59613"/>
<path d="M39.1182 44.178C38.5555 43.2517 37.8081 42.3981 37.008 41.6807C36.1991 42.389 35.4605 43.2517 34.8978 44.178C34.2207 45.2949 33.9218 46.8932 34.7395 48.0283C35.2671 48.7639 36.1639 49 37.008 49C37.8609 49 38.7489 48.7548 39.2765 48.0283C40.0942 46.8932 39.7865 45.2949 39.1182 44.178Z" fill="#E59613"/>
</svg>
